<?xml version="1.0" encoding="UTF-8"?>
<svg width="1004px" height="621px" viewBox="0 0 1004 621" version="1.1" xmlns="http://www.w3.org/2000/svg" xmlns:xlink="http://www.w3.org/1999/xlink">
    <title>mc_symbol</title>
    <g id="Page-1" stroke="none" stroke-width="1" fill="none" fill-rule="evenodd">
        <g id="mc_symbol" transform="translate(0.000000, 0.000000)" fill-rule="nonzero">
            <rect id="Rectangle" fill="#FF5F00" x="365.986995" y="66.2903647" width="271.280757" height="487.499271"></rect>
            <path d="M383.212892,310.04 C383.126042,214.909242 426.793179,125.023517 501.628234,66.2903647 C374.515048,-33.6236617 191.961545,-19.0815477 82.2692336,99.6962774 C-27.4230779,218.474102 -27.4230779,401.605898 82.2692336,520.383723 C191.961545,639.161548 374.515048,653.703662 501.628234,553.789635 C426.793694,495.056068 383.126686,405.17061 383.212892,310.04 Z" id="Path" fill="#EB001B"></path>
            <path d="M828.716972,588.896403 C721.956805,640.774572 594.947227,627.142505 501.628234,553.789635 C576.393436,495.000246 620.042731,405.150608 620.042731,310.04 C620.042731,214.929392 576.393436,125.079754 501.628234,66.2903647 C594.947227,-7.06250506 721.956805,-20.6945723 828.716972,31.1835974 C935.47714,83.0617672 1003.24099,191.342579 1003.24099,310.04 C1003.24099,428.737421 935.47714,537.018233 828.716972,588.896403 Z" id="Path" fill="#F79E1B"></path>
        </g>
    </g>
</svg>