<?xml version="1.0" encoding="UTF-8"?>
<svg width="512px" height="106px" viewBox="0 0 512 106" version="1.1" xmlns="http://www.w3.org/2000/svg" xmlns:xlink="http://www.w3.org/1999/xlink">
    <title>PRIcons-colored-primerica-logo</title>
    <g id="Page-1" stroke="none" stroke-width="1" fill="none" fill-rule="evenodd">
        <g id="PRIcons-colored-primerica-logo" fill-rule="nonzero">
            <path d="M40,62.9 C39.8,64.1 39.5,65.1 39.5,66.3 C39.5,68.7 40,70.9 40.9,73 L41.1,73.2 L41.1,73.4 L41.6,73.4 C52.9,72.7 62.6,66.7 68.4,57.5 L68.6,57.3 L68.6,57.1 L68.4,56.6 C66.5,53.7 63.3,51.8 60,50.8 L59.8,50.8 L59.6,50.8 L59.4,51.3 C55.5,57.8 48.8,62.1 40.8,62.4 L40.6,62.4 L40.4,62.4 L40,62.9 Z M6.5,40 C6.5,48.4 9.6,56.2 14.7,61.9 L15.7,63.1 L15.9,61.7 C16.4,57.1 17.6,53 19.3,49.4 L19.3,49.2 L19.3,49.2 L19.3,48.7 C18.1,46 17.4,42.9 17.4,39.8 C17.4,27.5 27.5,17.4 39.8,17.4 C47,17.4 53.3,20.8 57.4,26.1 L57.4,26.3 L57.4,26.3 L57.6,26.3 C61.9,26.5 66,27.5 69.9,29.2 L71.3,29.7 L70.8,28.3 C66,15.5 53.7,6.4 39.5,6.4 C21.5,6.4 6.5,21.4 6.5,40" id="Shape" fill="#3E8EDE"></path>
            <path d="M70.1,73.7 L70.6,73.7 C88.7,73.2 103.1,58.5 103.1,40.2 C103.3,21.6 88.4,6.7 69.8,6.7 C68.1,6.7 66.4,6.9 64.7,7.2 L63.3,7.4 L64.5,8.4 C67.9,11.1 71,14.2 73.4,18 L73.4,18.2 L73.4,18.2 L73.6,18.2 C84.2,20.1 92.2,29.3 92.2,40.1 L92.2,40.1 L92.2,40.1 L92.2,40.1 C92.2,51.4 84,60.6 73.2,62.3 L73,62.3 L73,62.3 L72.8,62.5 C70.4,66.1 67.3,69.2 63.6,71.9 L62.4,72.9 L63.8,73.1 C65.5,73.3 67.2,73.6 68.9,73.6 L69.4,73.6 L70.1,73.6 L70.1,73.7 Z M50.4,51.3 C48.5,47.9 47.5,44.3 47.5,40.2 C47.5,36.1 48.7,32 50.6,28.9 L50.8,28.7 L50.8,28.5 L50.3,28 C47.6,25.8 44.5,24.4 40.9,24.1 L40.7,24.1 L40.5,24.1 L40.3,24.6 C37.6,29.4 36.2,34.7 36.2,40.5 C36.2,46 37.4,51.1 39.8,55.7 L39.8,55.7 L39.8,55.9 L40,56.1 L40,56.3 L40.5,56.3 C44.1,56.1 47.5,54.9 50.1,52.7 L50.3,52.5 L50.5,52.3 L50.4,51.3 L50.4,51.3" id="Shape" fill="#E2231A"></path>
            <path d="M55.4,99.7 L55.6,99.7 L56.3,99.7 C70.5,99.2 82.3,90.3 86.9,77.5 L86.9,77.5 L87.4,76.1 L86,76.8 C82.1,78.5 77.8,79.7 73.2,80.2 L73,80.2 L73,80.2 L72.8,80.4 C68.7,85.5 62.4,88.8 55.4,88.8 C43.1,88.8 33,78.7 33,66.4 C33,63.7 33.5,61.3 34.2,59.2 L34.2,59 L34.2,59 L34,58.8 C32.1,54.9 30.6,50.8 29.9,46.3 L29.7,44.6 L29.2,45.8 C24.9,51.6 22.2,58.6 22.2,66.3 C22.2,84.6 36.7,99.3 54.7,99.8 L55.2,99.8 L55.4,99.8 L55.4,99.7 Z M74.7,54.9 L74.9,55.4 L74.9,55.4 L75.4,55.2 C78.8,54 81.4,51.6 83.4,48.7 L83.6,48.5 L83.6,48.5 L83.4,48 C83.4,48 83.4,48 83.4,47.8 L83.4,47.6 L83.4,47.6 L83.2,47.4 C77.2,39 67.5,33.2 56.4,32.9 L56.2,32.9 L56,32.9 L55.8,33.4 C54.8,35.6 54.1,38 54.1,40.4 C54.1,41.4 54.1,42.6 54.3,43.5 L54.3,44 L54.3,44.2 L54.8,44.2 C55,44.2 55.3,44.2 55.5,44.2 C63.6,43.8 70.9,48.1 74.7,54.9" id="Shape" fill="#FFFFFF"></path>
            <path d="M133.1,29.6 L156.2,29.6 C166.6,29.6 171.6,34.9 171.6,43.1 C171.6,51.3 166.5,56.4 156.2,56.4 L141.7,56.4 L141.7,76.2 L133,76.2 L133.1,29.6 Z M141.7,48.1 L156.9,48.1 C161.2,48.1 162.9,45.2 162.9,42.8 C162.9,40.4 161.5,37.5 156.9,37.5 L141.7,37.5 L141.7,48.1 Z M180.1,29.6 L203.2,29.6 C213.6,29.6 218.6,34.9 218.6,43.1 C218.6,49.4 215.5,55.2 206.8,56.4 L219.1,76.4 L209,76.4 L197.2,56.6 L188.8,56.6 L188.8,76.4 L180.1,76.4 L180.1,29.6 Z M188.5,48.1 L203.7,48.1 C208,48.1 209.7,45.2 209.7,42.8 C209.7,40.4 208.3,37.5 203.7,37.5 L188.5,37.5 L188.5,48.1 Z M227.3,76.1 L236,76.1 L236,29.6 L227.3,29.6 L227.3,76.1 Z M247.6,76.1 L256,76.1 L256,47.2 L268.3,67.2 L280.4,47.9 L280.4,76.1 L288.8,76.1 L288.8,29.6 L283,29.6 L268.1,53.5 L253.6,29.6 L247.6,29.6 L247.6,76.1 L247.6,76.1 Z M301.1,76.1 L336.5,76.1 L336.5,67.9 L309.5,68.1 L309.5,56.3 L328.5,56.3 L328.5,48.1 L309.5,48.1 L309.5,37.7 L336.5,37.7 L336.5,29.5 L301.1,29.5 L301.1,76.1 Z M346.4,29.6 L369.5,29.6 C379.9,29.6 384.9,34.9 384.9,43.1 C384.9,49.4 381.8,55.2 373.1,56.4 L385.4,76.4 L375.3,76.4 L363.5,56.6 L355.1,56.6 L355.1,76.4 L346.4,76.4 L346.4,29.6 L346.4,29.6 Z M355.1,48.1 L370.3,48.1 C374.6,48.1 376.3,45.2 376.3,42.8 C376.3,40.4 374.9,37.5 370.3,37.5 L355.1,37.5 L355.1,48.1 Z M393.9,76.1 L402.6,76.1 L402.6,29.6 L393.9,29.6 L393.9,76.1 Z M448.8,62.6 C445.7,66.7 441.1,69.1 435.8,69.1 C427.4,69.1 419.9,62.1 419.9,52.9 C419.9,43.7 427.4,36.7 435.8,36.7 C441.1,36.7 445.7,39.1 448.6,43.4 L455.8,38.1 C450.5,31.6 443.3,28.5 435.8,28.5 C421.8,28.5 410.7,39.1 410.7,52.8 C410.7,66.5 421.8,77.1 435.8,77.1 C443.3,77.1 450.5,74 455.8,67.5 L448.8,62.6 Z M478.3,29.6 L483.6,29.6 L503.4,76.1 L494.2,76.1 L490.6,67.4 L470.8,67.4 L467.2,76.1 L458,76.1 L478.3,29.6 Z M487.4,59.7 L480.7,43.1 L474,59.7 L487.4,59.7 Z M69.9,0.2 C92.1,0.2 109.9,18 109.9,40.2 C109.9,52.5 104.4,63.6 95.4,70.8 L95.2,70.8 L95.2,70.8 L95.2,71 C92.8,90.5 75.9,105.7 55.7,105.7 L55.7,105.7 L55.5,105.7 L55.5,105.7 C35.5,105.9 18.9,91.2 16.2,72.2 L16.2,72 L16.2,72 L16,71.8 C6.3,64.3 0,53 0,40 C0,17.8 17.8,0 40,0 C45.3,0 50.4,1 55.2,2.9 L55.4,2.9 L55.4,2.9 L55.6,2.9 C60,1.1 64.8,0.2 69.9,0.2 M55.4,99.7 L55.6,99.7 L56.3,99.7 C70.5,99.2 82.3,90.3 86.9,77.5 L86.9,77.5 L87.4,76.1 L86,76.8 C82.1,78.5 77.8,79.7 73.2,80.2 L73,80.2 L73,80.2 L72.8,80.4 C68.7,85.5 62.4,88.8 55.4,88.8 C43.1,88.8 33,78.7 33,66.4 C33,63.7 33.5,61.3 34.2,59.2 L34.2,59 L34.2,59 L34,58.8 C32.1,54.9 30.6,50.8 29.9,46.3 L29.7,44.9 L29.2,45.9 C24.9,51.7 22.2,58.7 22.2,66.4 C22.2,84.7 36.7,99.4 54.7,99.9 L55.2,99.9 L55.4,99.9 L55.4,99.7 Z M54.7,77.1 L54.7,77.1 L54.7,77.1 L54.2,77.1 C52.3,77.8 49.9,78.5 47.7,78.8 L46.3,79 C49,80.9 52.1,81.9 55.5,81.9 C58.6,81.9 61.3,81.2 63.7,79.7 L61,79 L60.8,79 C58.1,78.5 57.1,78 54.7,77.1 M70.1,73.7 L70.6,73.7 C88.7,73.2 103.1,58.5 103.1,40.2 C103.3,21.6 88.4,6.7 69.8,6.7 C68.1,6.7 66.4,6.9 64.7,7.2 L63.3,7.4 L64.5,8.4 C67.9,11.1 71,14.2 73.4,18 L73.4,18.2 L73.4,18.2 L73.6,18.2 C84.2,20.1 92.2,29 92.2,40.1 L92.2,40.1 L92.2,40.1 L92.2,40.1 C92.2,51.4 84,60.6 73.2,62.3 L73,62.3 L73,62.3 L72.8,62.5 C70.4,66.1 67.3,69.2 63.6,71.9 L62.4,72.9 L63.8,73.1 C65.5,73.3 67.2,73.6 68.9,73.6 L69.4,73.6 L70.1,73.6 L70.1,73.7 Z M40,62.9 C39.8,64.1 39.5,65.1 39.5,66.3 C39.5,68.7 40,70.9 40.9,73 L41.1,73.2 L41.1,73.4 L41.6,73.4 C52.9,72.7 62.6,66.7 68.4,57.5 L68.6,57.3 L68.6,57.1 L68.4,56.6 C66.5,53.7 63.3,51.8 60,50.8 L59.8,50.8 L59.6,50.8 L59.4,51.3 C55.5,57.8 48.8,62.1 40.8,62.4 L40.6,62.4 L40.4,62.4 L40,62.9 Z M6.5,40 C6.5,48.4 9.6,56.2 14.7,61.9 L15.7,63.1 L15.9,61.7 C16.4,57.1 17.6,53 19.3,49.4 L19.3,49.2 L19.3,49.2 L19.3,48.7 C18.1,46 17.4,42.9 17.4,39.8 C17.4,27.5 27.5,17.4 39.8,17.4 C47,17.4 53.3,20.8 57.4,26.1 L57.6,26.3 L57.6,26.3 L57.8,26.3 C62.1,26.5 66.2,27.5 70.1,29.2 L71.5,29.7 L71,28.3 C66.2,15.5 53.9,6.4 39.7,6.4 C21.5,6.4 6.5,21.4 6.5,40 M50.4,51.3 C48.5,47.9 47.5,44.3 47.5,40.2 C47.5,36.1 48.7,32 50.6,28.9 L50.8,28.7 L50.8,28.5 L50.3,28 C47.6,25.8 44.5,24.4 40.9,24.1 L40.7,24.1 L40.5,24.1 L40.3,24.6 C37.6,29.4 36.2,34.7 36.2,40.5 C36.2,46 37.4,51.1 39.8,55.7 L39.8,55.7 L39.8,55.9 L40,56.1 L40,56.3 L40.5,56.3 C44.1,56.1 47.5,54.9 50.1,52.7 L50.3,52.5 L50.5,52.3 L50.4,51.3 L50.4,51.3 M74.7,54.9 L74.9,55.4 L74.9,55.4 L75.4,55.2 C78.8,54 81.4,51.6 83.4,48.7 L83.6,48.5 L83.6,48.3 L83.4,47.8 C83.4,47.8 83.4,47.8 83.4,47.6 L83.4,47.4 L83.4,47.4 L83.2,47.2 C77.2,38.8 67.5,33 56.4,32.7 L56.2,32.7 L56,32.7 L55.8,33.2 C54.8,35.4 54.1,37.8 54.1,40.2 C54.1,41.2 54.1,42.4 54.3,43.3 L54.3,43.8 L54.3,44 L54.8,44 C55,44 55.3,44 55.5,44 C63.6,43.8 70.9,48.1 74.7,54.9 M24.1,40 C24.1,40.5 24.1,41 24.1,41.7 L25.5,40 C26.9,38.3 28.2,37.1 30.1,35.7 L30.3,35.7 L30.3,35.7 L30.3,35.5 C30.8,32.8 31,31.4 31.7,28.8 L32.4,26.1 C27.5,28.6 24.1,33.9 24.1,40 M79.8,34.4 C81.5,35.6 83.2,37.3 84.6,39 L84.8,39.2 L84.8,39.2 L86,40.4 L86,40.4 C86,34.4 82.6,29.1 77.6,26.4 L77.8,27.4 L78,27.9 L78.2,28.4 C78.7,30.3 79.4,32.3 79.6,34.2 L79.8,34.4 L79.8,34.4 L79.8,34.4 Z M506,29.3 C509.4,29.3 512,32 512,35.3 C512,38.7 509.3,41.3 506,41.3 C502.7,41.3 499.7,38.6 499.7,35.3 C499.7,32 502.4,29.3 506,29.3 L506,29.3 Z M505.7,30.6 C503,30.6 501.1,32.8 501.1,35.4 C501.1,38.1 503,40.2 505.7,40.2 C508.4,40.2 510.3,38 510.3,35.4 C510.3,32.7 508.4,30.6 505.7,30.6 L505.7,30.6 Z M504.8,38.3 L503.4,38.3 L503.4,32.3 C503.9,32.3 504.6,32.1 505.8,32.1 C507,32.1 507.5,32.3 508,32.6 C508.2,32.8 508.5,33.3 508.5,33.8 C508.5,34.5 508,35 507.3,35.2 L507.3,35.2 C507.8,35.4 508.3,35.9 508.5,36.6 C508.7,37.6 508.7,37.8 509,38 L507.6,38 C507.4,37.8 507.4,37.3 507.1,36.6 C507.1,35.9 506.6,35.6 505.9,35.6 L505,35.6 L505,38.3 L504.8,38.3 Z M505,34.9 L505.7,34.9 C506.4,34.9 507.1,34.7 507.1,33.9 C507.1,33.4 506.6,32.9 505.9,32.9 C505.4,32.9 505.2,32.9 505.2,32.9 L505.2,34.8 L505,34.8 L505,34.9 Z" id="Shape" fill="#000000"></path>
        </g>
    </g>
</svg>