<?xml version="1.0" encoding="UTF-8"?>
<svg width="213px" height="44px" viewBox="0 0 213 44" version="1.1" xmlns="http://www.w3.org/2000/svg" xmlns:xlink="http://www.w3.org/1999/xlink">
    <title>primerica-color-logo copy</title>
    <defs>
        <polygon id="path-1" points="0 0 208.74 0 208.74 43.901 0 43.901"></polygon>
    </defs>
    <g id="primerica-color-logo-copy" stroke="none" stroke-width="1" fill="none" fill-rule="evenodd">
        <path d="M58.8,20.099 L65.1,20.099 C66.9,20.099 67.6,18.899 67.6,17.899 C67.6,16.899 67,15.699 65.1,15.699 L58.8,15.699 L58.8,20.099 Z M55.2,12.399 L64.8,12.399 C69.1,12.399 71.2,14.599 71.2,17.999 C71.2,21.399 69.1,23.499 64.8,23.499 L58.8,23.499 L58.8,31.698 L55.2,31.698 L55.2,12.399 L55.2,12.399 Z" id="Fill-1" fill="#FFFFFF"></path>
        <path d="M78.2,20.099 L84.5,20.099 C86.3,20.099 87,18.899 87,17.899 C87,16.899 86.4,15.699 84.5,15.699 L78.2,15.699 L78.2,20.099 Z M74.7,12.399 L84.3,12.399 C88.6,12.399 90.7,14.599 90.7,17.999 C90.7,20.599 89.4,22.999 85.8,23.499 L90.9,31.799 L86.7,31.799 L81.8,23.599 L78.3,23.599 L78.3,31.799 L74.7,31.799 L74.7,12.399 L74.7,12.399 Z" id="Fill-2" fill="#FFFFFF"></path>
        <polygon id="Fill-3" fill="#FFFFFF" points="94.3 31.699 97.9 31.699 97.9 12.399 94.3 12.399"></polygon>
        <polyline id="Fill-4" fill="#FFFFFF" points="102.7 12.399 105.2 12.399 111.2 22.299 117.4 12.399 119.8 12.399 119.8 31.698 116.3 31.698 116.3 19.999 111.3 27.999 106.2 19.699 106.2 31.698 102.7 31.698 102.7 12.399"></polyline>
        <polyline id="Fill-5" fill="#FFFFFF" points="124.9 12.399 139.6 12.399 139.6 15.799 128.4 15.799 128.4 20.099 136.3 20.099 136.3 23.499 128.4 23.499 128.4 28.399 139.6 28.299 139.6 31.698 124.9 31.698 124.9 12.399"></polyline>
        <path d="M147.3,20.099 L153.6,20.099 C155.4,20.099 156.1,18.899 156.1,17.899 C156.1,16.899 155.5,15.699 153.6,15.699 L147.3,15.699 L147.3,20.099 Z M143.7,12.399 L153.3,12.399 C157.6,12.399 159.7,14.599 159.7,17.999 C159.7,20.599 158.4,22.999 154.8,23.499 L159.9,31.799 L155.7,31.799 L150.8,23.599 L147.3,23.599 L147.3,31.799 L143.7,31.799 L143.7,12.399 L143.7,12.399 Z" id="Fill-6" fill="#FFFFFF"></path>
        <polygon id="Fill-7" fill="#FFFFFF" points="163.4 31.699 167 31.699 167 12.399 163.4 12.399"></polygon>
        <path d="M189.1,28.198 C186.9,30.899 183.9,32.198 180.8,32.198 C175,32.198 170.4,27.799 170.4,22.099 C170.4,16.399 175,11.999 180.8,11.999 C183.9,11.999 186.9,13.299 189.1,15.999 L186.1,18.199 C184.9,16.399 183,15.399 180.8,15.399 C177.3,15.399 174.2,18.299 174.2,22.099 C174.2,25.899 177.3,28.799 180.8,28.799 C183,28.799 184.9,27.799 186.2,26.099 L189.1,28.198" id="Fill-8" fill="#FFFFFF"></path>
        <g id="Group-12" transform="translate(0.060000, 0.099000)">
            <mask id="mask-2" fill="white">
                <use xlink:href="#path-1"></use>
            </mask>
            <g id="Clip-10"></g>
            <path d="M202.14,24.8 L199.34,17.9 L196.54,24.8 L202.14,24.8 Z M198.34,12.3 L200.54,12.3 L208.74,31.599 L204.94,31.599 L203.44,28 L195.24,28 L193.74,31.599 L189.94,31.599 L198.34,12.3 L198.34,12.3 Z" id="Fill-9" fill="#FFFFFF" mask="url(#mask-2)"></path>
            <path d="M33.04,14.3 C33.74,14.8 34.44,15.5 35.04,16.2 L35.14,16.3 L35.64,16.8 C35.64,14.3 34.24,12.1 32.14,11 L32.24,11.4 L32.34,11.6 L32.44,11.8 C32.64,12.6 32.94,13.4 33.04,14.2 L33.04,14.3 Z M9.94,16.6 C9.94,16.8 9.94,17 9.94,17.3 L10.54,16.6 C11.14,15.9 11.64,15.4 12.44,14.8 L12.54,14.8 L12.54,14.7 C12.74,13.6 12.84,13 13.14,11.9 L13.44,10.8 C11.34,11.9 9.94,14.1 9.94,16.6 L9.94,16.6 Z M30.94,22.8 L31.04,23 L31.24,22.9 C32.64,22.4 33.74,21.4 34.54,20.2 L34.64,20.1 L34.64,20 L34.54,19.8 C34.54,19.8 34.54,19.8 34.54,19.7 L34.54,19.6 L34.44,19.5 C31.94,16 27.94,13.6 23.34,13.5 L23.14,13.5 L23.04,13.7 C22.64,14.6 22.34,15.6 22.34,16.6 C22.34,17 22.34,17.5 22.44,17.9 L22.44,18.2 L22.64,18.2 C22.74,18.2 22.84,18.2 22.94,18.2 C26.34,18.2 29.34,20 30.94,22.8 L30.94,22.8 Z M20.84,21.3 C20.04,19.9 19.64,18.4 19.64,16.7 C19.64,15 20.14,13.3 20.94,12 L21.04,11.9 L21.04,11.8 L20.84,11.6 C19.74,10.7 18.44,10.1 16.94,10 L16.74,10 L16.64,10.2 C15.54,12.2 14.94,14.4 14.94,16.8 C14.94,19.1 15.44,21.2 16.44,23.099 L16.44,23.2 L16.54,23.3 L16.54,23.4 L16.74,23.4 C18.24,23.3 19.64,22.8 20.74,21.9 L20.84,21.8 L20.94,21.7 L20.84,21.3 L20.84,21.3 Z M2.64,16.6 C2.64,20.1 3.94,23.3 6.04,25.7 L6.44,26.2 L6.54,25.599 C6.74,23.7 7.24,22 7.94,20.5 L7.94,20.2 C7.44,19.1 7.14,17.8 7.14,16.5 C7.14,11.4 11.34,7.2 16.44,7.2 C19.44,7.2 22.04,8.6 23.74,10.8 L23.84,10.9 L23.94,10.9 C25.74,11 27.44,11.4 29.04,12.1 L29.64,12.3 L29.44,11.7 C27.44,6.4 22.34,2.6 16.44,2.6 C8.84,2.7 2.64,8.9 2.64,16.6 L2.64,16.6 Z M16.54,26.099 C16.44,26.599 16.34,27 16.34,27.5 C16.34,28.5 16.54,29.4 16.94,30.3 L17.04,30.4 L17.04,30.5 L17.24,30.5 C21.94,30.2 25.94,27.7 28.34,23.9 L28.44,23.8 L28.44,23.7 L28.34,23.5 C27.54,22.3 26.24,21.5 24.84,21.1 L24.64,21.1 L24.54,21.3 C22.94,24 20.14,25.8 16.84,25.9 L16.64,25.9 L16.54,26.099 Z M29.04,30.599 L29.24,30.599 C36.74,30.4 42.74,24.3 42.74,16.7 C42.84,9 36.64,2.8 28.94,2.8 C28.24,2.8 27.54,2.9 26.84,3 L26.24,3.1 L26.74,3.5 C28.14,4.6 29.44,5.9 30.44,7.5 L30.44,7.6 L30.54,7.6 C34.94,8.4 38.24,12.1 38.24,16.7 C38.24,21.4 34.84,25.2 30.34,25.9 L30.24,25.9 L30.14,26 C29.14,27.5 27.84,28.8 26.34,29.9 L25.84,30.3 L26.44,30.4 C27.14,30.5 27.84,30.599 28.54,30.599 L29.04,30.599 Z M22.64,32 L22.44,32 C21.64,32.3 20.64,32.599 19.74,32.7 L19.14,32.8 C20.24,33.599 21.54,34 22.94,34 C24.24,34 25.34,33.7 26.34,33.099 L25.24,32.8 L25.14,32.8 C24.04,32.599 23.64,32.4 22.64,32 L22.64,32 Z M22.94,41.4 L23.34,41.4 C29.24,41.2 34.14,37.5 36.04,32.2 L36.24,31.599 L35.64,31.9 C34.04,32.599 32.24,33.099 30.34,33.3 L30.24,33.3 L30.14,33.4 C28.44,35.5 25.84,36.9 22.94,36.9 C17.84,36.9 13.64,32.7 13.64,27.599 C13.64,26.5 13.84,25.5 14.14,24.599 L14.14,24.5 L14.04,24.4 C13.24,22.8 12.64,21.1 12.34,19.2 L12.24,18.6 L12.04,19 C10.24,21.4 9.14,24.3 9.14,27.5 C9.14,35.099 15.14,41.2 22.64,41.4 L22.94,41.4 Z M28.94,0.1 C38.14,0.1 45.54,7.5 45.54,16.7 C45.54,21.8 43.24,26.4 39.54,29.4 L39.44,29.4 L39.44,29.5 C38.44,37.599 31.44,43.9 23.04,43.9 L22.94,43.9 C14.64,44 7.74,37.9 6.64,30 L6.64,29.9 L6.54,29.8 C2.54,26.7 -0.06,22 -0.06,16.6 C-0.06,7.4 7.34,0 16.54,0 C18.74,0 20.84,0.4 22.84,1.2 L23.04,1.2 C24.84,0.5 26.84,0.1 28.94,0.1 L28.94,0.1 Z" id="Fill-11" fill="#0A0B09" mask="url(#mask-2)"></path>
        </g>
        <path d="M2.7,16.699 C2.7,20.199 4,23.399 6.1,25.799 L6.5,26.299 L6.6,25.698 C6.8,23.799 7.3,22.099 8,20.599 L8,20.299 C7.5,19.199 7.2,17.899 7.2,16.599 C7.2,11.499 11.4,7.299 16.5,7.299 C19.5,7.299 22.1,8.699 23.8,10.899 L23.8,10.999 L23.9,10.999 C25.7,11.099 27.4,11.499 29,12.199 L29.6,12.399 L29.4,11.799 C27.4,6.499 22.3,2.699 16.4,2.699 C8.9,2.799 2.7,8.999 2.7,16.699 M16.6,26.198 C16.5,26.698 16.4,27.099 16.4,27.599 C16.4,28.599 16.6,29.499 17,30.399 L17.1,30.499 L17.1,30.599 L17.3,30.599 C22,30.299 26,27.799 28.4,23.999 L28.5,23.899 L28.5,23.799 L28.4,23.599 C27.6,22.399 26.3,21.599 24.9,21.199 L24.7,21.199 L24.6,21.399 C23,24.099 20.2,25.899 16.9,25.999 L16.7,25.999 L16.6,26.198" id="Fill-13" fill="#4A80B5"></path>
        <path d="M20.9,21.399 C20.1,19.999 19.7,18.499 19.7,16.799 C19.7,15.099 20.2,13.399 21,12.099 L21.1,11.999 L21.1,11.899 L20.9,11.699 C19.8,10.799 18.5,10.199 17,10.099 L16.8,10.099 L16.7,10.299 C15.6,12.299 15,14.499 15,16.899 C15,19.199 15.5,21.299 16.5,23.198 L16.5,23.299 L16.6,23.399 L16.6,23.499 L16.8,23.499 C18.3,23.399 19.7,22.899 20.8,21.999 L20.9,21.899 L21,21.799 L20.9,21.399 M29.1,30.698 L29.3,30.698 C36.8,30.499 42.8,24.399 42.8,16.799 C42.9,9.099 36.7,2.899 29,2.899 C28.3,2.899 27.6,2.999 26.9,3.099 L26.3,3.199 L26.8,3.599 C28.2,4.699 29.5,5.999 30.5,7.599 L30.5,7.699 L30.6,7.699 C35,8.499 38.3,12.299 38.3,16.799 C38.3,21.499 34.9,25.299 30.4,25.999 L30.3,25.999 L30.2,26.099 C29.2,27.599 27.9,28.899 26.4,29.999 L25.9,30.399 L26.5,30.499 C27.2,30.599 27.9,30.698 28.6,30.698 L29.1,30.698" id="Fill-14" fill="#CE2A2B"></path>
        <path d="M31,22.899 L31.1,23.099 L31.3,22.999 C32.7,22.499 33.8,21.499 34.6,20.299 L34.7,20.199 L34.6,19.999 C34.6,19.999 34.6,19.999 34.6,19.899 L34.6,19.799 L34.5,19.699 C32,16.199 28,13.799 23.4,13.699 L23.2,13.699 L23.1,13.899 C22.7,14.799 22.4,15.799 22.4,16.799 C22.4,17.199 22.4,17.699 22.5,18.099 L22.5,18.399 L22.7,18.399 C22.8,18.399 22.9,18.399 23,18.399 C26.4,18.299 29.4,20.099 31,22.899 M23,41.499 L23.4,41.499 C29.3,41.299 34.2,37.599 36.1,32.299 L36.3,31.698 L35.7,31.999 C34.1,32.698 32.3,33.198 30.4,33.399 L30.3,33.399 L30.2,33.499 C28.5,35.599 25.9,36.999 23,36.999 C17.9,36.999 13.7,32.799 13.7,27.698 C13.7,26.599 13.9,25.599 14.2,24.698 L14.2,24.599 L14.1,24.499 C13.3,22.899 12.7,21.199 12.4,19.299 L12.3,18.599 L12.1,19.099 C10.3,21.499 9.2,24.399 9.2,27.599 C9.2,35.198 15.2,41.299 22.7,41.499 L23,41.499" id="Fill-15" fill="#FFFFFE"></path>
        <path d="M209.5,14.599 L209.8,14.599 C210.1,14.599 210.4,14.499 210.4,14.199 C210.4,13.999 210.2,13.799 209.9,13.799 C209.7,13.799 209.6,13.799 209.6,13.799 L209.6,14.599 L209.5,14.599 Z M209.4,15.999 L208.8,15.999 L208.8,13.499 C209,13.499 209.3,13.399 209.8,13.399 C210.3,13.399 210.5,13.499 210.7,13.599 C210.8,13.699 210.9,13.899 210.9,14.099 C210.9,14.399 210.7,14.599 210.4,14.699 C210.6,14.799 210.8,14.999 210.9,15.299 C211,15.699 211,15.799 211.1,15.899 L210.5,15.899 C210.4,15.799 210.4,15.599 210.3,15.299 C210.3,14.999 210.1,14.899 209.8,14.899 L209.5,14.899 L209.5,15.999 L209.4,15.999 Z M209.8,12.799 C208.7,12.799 207.9,13.699 207.9,14.799 C207.9,15.899 208.7,16.799 209.8,16.799 C210.9,16.799 211.7,15.899 211.7,14.799 C211.7,13.699 210.9,12.799 209.8,12.799 Z M209.9,12.299 C211.3,12.299 212.4,13.399 212.4,14.799 C212.4,16.199 211.3,17.299 209.9,17.299 C208.5,17.299 207.3,16.199 207.3,14.799 C207.3,13.399 208.4,12.299 209.9,12.299 L209.9,12.299 Z" id="Fill-16" fill="#FFFFFF"></path>
    </g>
</svg>