<?xml version="1.0" standalone="no"?>
<!DOCTYPE svg PUBLIC "-//W3C//DTD SVG 1.1//EN" "http://www.w3.org/Graphics/SVG/1.1/DTD/svg11.dtd" >
<svg xmlns="http://www.w3.org/2000/svg">
<metadata>
<json>
<![CDATA[
{
	"fontFamily": "PRIcons",
	"majorVersion": 2,
	"minorVersion": 4,
	"copyright": "2017",
	"version": "Version 2.4",
	"fontId": "PRIcons",
	"psName": "PRIcons",
	"subFamily": "Regular",
	"fullName": "PRIcons",
	"description": "Font generated by IcoMoon."
}
]]>
</json>
</metadata>
<defs>
<font id="PRIcons" horiz-adv-x="1024">
<font-face units-per-em="1024" ascent="960" descent="-64" />
<missing-glyph horiz-adv-x="1024" />
<glyph unicode="&#x20;" horiz-adv-x="512" d="" />
<glyph unicode="&#x270f;" glyph-name="PRIcons-pencil" data-tags="PRIcons_pencil" d="M1007.376 730.112c22.176 22.112 22.176 57.984 0 80.224l-133.088 133.072c-22.176 22.128-58.048 22.128-80.208 0l-104.096-104.080 213.296-213.312 104.096 104.096zM0 149.312v-213.312h213.312l629.136 629.136-213.296 213.296-629.152-629.12z" />
<glyph unicode="&#xe006;" glyph-name="PRIcons-star" data-tags="PRIcons_star" d="M512 934.944l-158.224-320.592-353.776-51.408 256-249.504-60.432-352.384 316.432 166.384 316.432-166.384-60.464 352.384 256.032 249.504-353.808 51.408z" />
<glyph unicode="&#xe007;" glyph-name="PRIcons-star-empty" data-tags="PRIcons_star-empty" d="M511.984 865.52l137.792-279.232 308.192-44.8-223.008-217.328 2.736-15.92 49.92-291.008-275.648 144.928-275.632-144.928 52.64 306.928-222.96 217.328 308.176 44.8 7.136 14.48 130.656 264.752zM511.984 934.944l-158.208-320.576-353.776-51.424 255.984-249.504-60.416-352.368 316.416 166.368 316.448-166.368-60.464 352.368 256.032 249.504-353.808 51.424-158.208 320.576z" />
<glyph unicode="&#xe009;" glyph-name="PRIcons-film" data-tags="PRIcons A 1.5.1.0_film" d="M910.208 867.568h-56v-42.688h-117.344v42.688h-452v-42.688l-114.656-1.328v44.016h-56.416c-62.592 0-113.792-41.952-113.792-93.216v-652.672c0-51.216 51.2-93.232 113.792-93.232h55.056v53.744l115.52-0.032v-53.712h455.152l0.016 47.088 113.328 1.328v-48.416h57.344c62.592 0 113.792 42.016 113.792 93.232v652.672c0 51.264-51.2 93.216-113.792 93.216zM284.528 167.136h-113.872v113.792h113.872v-113.792zM284.528 394.672h-113.872v113.792h113.872v-113.792zM284.528 622.208h-113.872v113.808h113.872v-113.808zM853.328 167.136h-113.728v113.792h113.728v-113.792zM853.328 394.672h-113.728v113.792h113.728v-113.792zM853.328 622.208h-113.728v113.808h113.728v-113.808z" />
<glyph unicode="&#xe010;" glyph-name="PRIcons-th-large" data-tags="PRIcons_th-large" d="M467.856 960v-467.856h-467.856v467.856zM1024 960v-467.856h-467.856v467.856zM0 403.856h467.856v-467.856h-467.856v467.856zM556.144 403.856h467.856v-467.856h-467.856v467.856z" />
<glyph unicode="&#xe011;" glyph-name="PRIcons-th" data-tags="PRIcons_th" d="M282.48 960v-282.48h-282.48v282.48zM653.248 960v-282.48h-282.48v282.48zM1024 960v-282.48h-282.48v282.48zM0 589.248h282.48v-282.48h-282.48v282.48zM370.768 589.248h282.48v-282.48h-282.48v282.48zM741.52 589.248h282.48v-282.48h-282.48v282.48zM0 218.48h282.48v-282.48h-282.48v282.48zM370.768 218.48h282.48v-282.48h-282.48v282.48zM741.52 218.48h282.48v-282.48h-282.48v282.48z" />
<glyph unicode="&#xe012;" glyph-name="PRIcons-th-list" data-tags="PRIcons_th-list" d="M268.576 960v-268.592h-268.576v268.592zM0 582.304h268.576v-268.592h-268.576v268.592zM0 204.592h268.576v-268.592h-268.576v268.592zM352.512 892.848h671.488v-134.304h-671.488v134.304zM352.512 515.152h671.488v-134.304h-671.488v134.304zM352.512 137.44h671.488v-134.304h-671.488v134.304z" />
<glyph unicode="&#xe033;" glyph-name="PRIcons-lock" data-tags="PRIcons_lock" d="M804.576 618.672h-48.768v97.52c0 134.56-109.232 243.808-243.808 243.808s-243.808-109.248-243.808-243.808v-97.52h-48.768c-53.632 0-97.52-43.904-97.52-97.52v-487.632c0-53.616 43.888-97.52 97.52-97.52h585.152c53.616 0 97.52 43.904 97.52 97.52v487.632c0 53.6-43.904 97.52-97.52 97.52zM360.832 716.192c0 83.376 67.792 151.152 151.168 151.152s151.136-67.76 151.136-151.152v-97.52h-302.304v97.52z" />
<glyph unicode="&#xe046;" glyph-name="PRIcons-camera" data-tags="PRIcons_camera" d="M512 564.432c-89.072 0-161.28-72.144-161.28-161.216 0-89.056 72.208-161.28 161.28-161.28s161.28 72.208 161.28 161.28c0 89.072-72.208 161.216-161.28 161.216zM512 179.216c-123.664 0-224 100.352-224 224s100.336 224 224 224 224-100.352 224-224c0-123.648-100.336-224-224-224zM870.416 761.584h-142.096l-81.904 89.632h-268.832l-81.904-89.632h-142.096c-49.232 0-89.584-40.304-89.584-89.584v-537.632c0-49.28 40.352-89.584 89.584-89.584h716.848c49.216 0 89.584 40.304 89.584 89.584v537.632c-0.016 49.28-40.368 89.584-89.6 89.584z" />
<glyph unicode="&#xe059;" glyph-name="PRIcons-camera-video" data-tags="PRIcons_camera-video" d="M796.4 533.328v199.136c0 31.264-25.616 56.864-56.816 56.864h-682.64c-31.344 0-56.944-25.6-56.944-56.864v-568.944c0-31.264 25.6-56.864 56.944-56.864h682.656c31.2 0 56.816 25.6 56.816 56.864v199.152l227.584-227.536v625.728l-227.6-227.536z" />
<glyph unicode="&#xe079;" glyph-name="PRIcons-chevron-left" data-tags="PRIcons_chevron-left" d="M702.112 16l56.688 59.344-377.040 370.944 377.088 374.704-56.976 59.008-436.72-434.016z" />
<glyph unicode="&#xe080;" glyph-name="PRIcons-chevron-right" data-tags="PRIcons_chevron-right" d="M321.888 880l-56.688-59.344 377.040-370.944-377.088-374.704 56.976-59.008 436.72 434.016z" />
<glyph unicode="&#xe090;" glyph-name="PRIcons-ban-circle" data-tags="PRIcons_ban-circle" d="M155.152 448c0 196.784 160.080 356.832 356.848 356.832 70.352 0 135.808-20.72 191.12-56l-491.952-492c-35.296 55.36-56.016 120.832-56.016 191.168zM512 91.168c-70.336 0-135.808 20.688-191.12 56l491.952 491.968c35.28-55.328 56.032-120.8 56.032-191.136 0-196.8-160.096-356.832-356.864-356.832zM0 448c0-282.8 229.232-512 512-512s512 229.2 512 512c0 282.784-229.232 512-512 512s-512-229.216-512-512z" />
<glyph unicode="&#xe091;" glyph-name="PRIcons-arrow-left" data-tags="PRIcons_arrow-left" d="M529.040 130.528v167.792h494.96v299.376h-494.96v167.776l-529.040-317.472z" />
<glyph unicode="&#xe092;" glyph-name="PRIcons-arrow-right" data-tags="PRIcons_arrow-right" d="M494.96 765.472v-167.792h-494.96v-299.376h494.96v-167.776l529.040 317.472z" />
<glyph unicode="&#xe093;" glyph-name="PRIcons-arrow-up" data-tags="PRIcons_arrow-up" d="M194.512 430.944h167.792v-494.944h299.392v494.944h167.792l-317.488 529.056z" />
<glyph unicode="&#xe094;" glyph-name="PRIcons-arrow-down" data-tags="PRIcons_arrow-down" d="M829.488 465.056h-167.792v494.944h-299.392v-494.944h-167.792l317.488-529.056z" />
<glyph unicode="&#xe109;" glyph-name="PRIcons-calendar" data-tags="PRIcons_calendar" d="M264.784 848h70.624v-190.72h-70.624v190.72zM688.56 848h70.688v-190.72h-70.688v190.72zM787.472 742.048v-113.024h-127.12v113.024h-296.688v-113.024h-127.152v113.024h-70.624v-692.24h692.256v692.24h-70.672zM801.6 106.32h-579.232v353.184h579.232v-353.184z" />
<glyph unicode="&#xe110;" glyph-name="PRIcons-calendar-add" data-tags="PRIcons_calendar-add" d="M100.096 848h70.816v-191.104h-70.816v191.104zM524.784 848h70.752v-191.104h-70.752v191.104zM693.6 459.856v282.992h-70.752v-113.216h-127.376v113.216h-297.28v-113.216h-127.408v113.216h-70.784v-693.616h450.032c47.408-68.416 126.432-113.232 215.968-113.232 145.088 0 262.688 117.6 262.688 262.656 0 135.744-102.944 247.376-235.088 261.2zM403.344 198.656c0-32.688 6.032-63.936 16.944-92.784h-363.632v353.872h580.784c-131.632-14.24-234.096-125.68-234.096-261.088zM797.376 169.456h-102.192v-102.128h-58.368v102.128h-102.16v58.384h102.16v102.144h58.368v-102.144h102.192v-58.384z" />
<glyph unicode="&#xe111;" glyph-name="PRIcons-calendar-sync" data-tags="PRIcons_calendar-sync" d="M865.712-0.656l151.776 207.024h-80.432c-0.88 138.624-110.256 251.504-247.472 258.016v278.048h-70.336v-112.576h-126.656v112.576h-295.584v-112.576h-126.64v112.576h-70.368v-689.616h466.192c47.216-65.456 124.064-108.080 210.944-108.080 43.312 0 84.096 10.656 120.032 29.392l-83.84 113.104c-11.44-3.536-23.6-5.472-36.192-5.472-67.776 0-122.944 55.152-122.944 122.944 0 0.56 0.032 1.088 0.032 1.664h85.872l-151.776 207.040-151.776-207.024h80.624c0-0.56-0.032-1.088-0.032-1.664 0-33.744 6.528-66 18.224-95.6h-379.072v351.84h576.88c-24.624-4.208-48.032-11.84-69.744-22.432l84.784-114.432c9.28 2.272 18.976 3.584 28.944 3.584 67.216 0 121.936-54.256 122.848-121.28h-86.032l151.744-207.056zM98.528 848h70.368v-190.016h-70.368v190.016zM520.752 848h70.336v-190.016h-70.336v190.016z" />
<glyph unicode="&#xe113;" glyph-name="PRIcons-chevron-up" data-tags="PRIcons_chevron-up" d="M80 257.888l59.344-56.688 370.944 377.040 374.704-377.088 59.008 56.976-434.016 436.72z" />
<glyph unicode="&#xe114;" glyph-name="PRIcons-chevron-down" data-tags="PRIcons_chevron-down" d="M944 638.112l-59.344 56.688-370.944-377.040-374.704 377.088-59.008-56.976 434.016-436.72z" />
<glyph unicode="&#xe123;" glyph-name="PRIcons-bell" data-tags="PRIcons_bell" d="M512-64c57.84 0 105.216 47.36 105.216 105.216h-210.432c0-57.856 47.376-105.216 105.216-105.216zM853.968 336.208v176.624c0 161.52-112.048 296.736-263.040 332.496v35.76c-0.016 43.664-35.264 78.912-78.928 78.912s-78.912-35.248-78.912-78.912v-35.76c-151.008-35.76-263.040-170.976-263.040-332.496v-176.624c0-52.608-105.232-189.76-105.232-189.76v-52.608h894.368v52.608c0-0.016-105.216 137.152-105.216 189.76z" />
<glyph unicode="&#xe125;" glyph-name="PRIcons-thumbs-up" data-tags="PRIcons_thumbs-up" d="M979.136 402.16c28.096 46.096 36.224 94.784 12.784 144.752-23.984 51.328-65.456 72.672-118.352 71.584-51.216-1.152-102.496-0.24-158.592-0.24 6.016 14.16 9.808 25.424 15.296 35.552 30.144 55.632 43.648 115.040 36.16 179.456-5.536 48.080-19.952 91.84-65.44 110.336-79.664 32.48-113.040 20.48-130.784-70.208-14.576-74.672-39.024-139.264-89.12-194.032-34.512-37.776-63.568-81.296-96.24-121.12-8.32-10.24-20.112-18.864-32-23.792-32.352-13.504-38.144-20.368-38.208-57.2-0.064-93.712 0-187.344 0-280.992 0-41.952-0.304-83.76 0.192-125.648 0.352-26.448 10.96-40.384 32.112-46.896 51.664-16.080 103.776-30.736 154.704-49.296 91.824-33.264 186.080-42.96 282.016-36.592 89.312 5.92 136.544 61.168 137.2 156.336 0.080 7.712 2.672 16.8 7.056 22.832 25.728 35.536 35.44 74.96 29.104 119.632-1.136 7.584 0.176 17.296 3.776 23.792 20.624 36.864 23.68 75.632 14.848 116.848-1.68 7.728-0.416 18.384 3.488 24.896zM225.28 532.928c-51.952 0.24-103.888 0.176-155.776 0.128-37.056-0.176-50.992-15.12-51.024-55.44-0.192-66.656-0.064-133.36-0.064-200 0-66.704-0.128-133.344 0.064-200.064 0.048-40.192 14.224-55.312 50.976-55.44 51.344-0.064 102.56-0.064 153.904 0 36.832 0.128 50.864 15.072 50.992 55.44 0.128 134.016 0.128 268.176 0 402.256-0.016 37.392-14.672 52.992-49.072 53.12z" />
<glyph unicode="&#xe142;" glyph-name="PRIcons-paperclip" data-tags="PRIcons_paperclip" d="M371.984 282.752c-45.568 0-85.184 16.56-118.848 49.68-33.616 33.056-50.464 72.976-50.464 119.648 0 47.728 16.288 87.888 48.848 120.48l307.712 307.68c53.136 53.2 117.2 79.76 192.080 79.76 74.896 0 138.928-26.56 192.112-79.744 53.184-53.152 79.76-117.184 79.76-192.112 0-74.896-26.592-138.96-79.76-192.112l-480.272-480.24c-53.184-53.2-116.672-79.792-190.48-79.792-74.896 0-138.928 26.592-192.112 79.792-53.152 53.152-79.744 117.216-79.744 192.064 0 74.896 26.592 138.928 79.744 192.112l53.728 53.76c0-53.2 16.272-100.976 48.864-143.296l-6.544-6.512c-26.048-26.032-39.056-58.032-39.056-96.064 0-37.936 13.008-69.968 39.056-96.048 26.048-26.032 58.080-39.072 96.064-39.072 38 0 70 13.040 96.032 39.072 53.2 53.2 132.976 133.216 239.344 240.128 106.368 106.928 186.128 186.944 239.296 240.144 26.048 26.032 39.072 58.080 39.072 96.064s-13.024 70.016-39.072 96.048c-27.12 26.032-59.424 39.072-96.848 39.072-37.44 0-69.2-13.040-95.248-39.072l-307.68-307.664c-6.528-6.512-9.76-14.656-9.76-24.432 0-9.76 3.232-17.904 9.76-24.416 6.496-6.512 14.656-9.728 24.4-9.728 9.76 0 17.92 3.216 24.432 9.728l239.328 239.312c27.136-27.152 40.704-59.152 40.704-96.048 0-35.776-13.568-67.28-40.704-94.4l-143.264-144.912c-32.576-32.592-72.736-48.88-120.48-48.88z" />
<glyph unicode="&#xe148;" glyph-name="PRIcons-usd" data-tags="PRIcons_usd" d="M768.864 129.984c-36.24-42.096-93.584-69.216-172.096-81.344v-112.64h-158.16v112.64c-51.6 8.336-98.032 24.464-139.376 48.352s-74.16 54.032-98.416 90.432l114.928 102.416c28.048-32.64 59.344-55.968 93.856-69.984 34.512-14.048 71.104-21.040 109.792-21.040 47.792 0 82.88 5.856 105.232 17.648 22.368 11.744 33.584 32.8 33.584 63.136 0 12.896-2.288 24.064-6.832 33.568-4.544 9.472-13.072 18.384-25.6 26.736s-30.544 16.32-54.048 23.904c-23.536 7.568-53.856 15.536-91.024 23.872-36.4 8.336-69.968 18.208-100.688 29.6-30.72 11.376-57.088 25.776-79.072 43.232-22.016 17.44-39.056 39.424-51.2 66-12.144 26.528-18.208 59.536-18.208 98.976 0 29.6 5.12 56.704 15.36 81.36 10.24 24.64 24.64 46.448 43.232 65.424 18.576 18.96 40.576 34.512 66 46.656 25.392 12.112 52.912 21.2 82.48 27.296v113.776h158.16v-114.928c42.464-8.336 80.592-22.368 114.336-42.096s65.024-44.768 93.872-75.104l-114.928-111.488c-25.792 26.544-53.264 46.832-82.384 60.88-29.184 14.016-61.808 21.040-98.032 21.040-42.24 0-71.664-6.64-88.24-19.92-16.608-13.264-24.896-28.624-24.896-46.064 0-12.912 2.448-23.728 7.392-32.432 4.928-8.72 13.472-16.496 25.616-23.328 12.112-6.832 28.448-13.28 48.912-19.344 20.48-6.080 46.656-12.896 78.512-20.464 31.856-7.6 63.536-16.496 95.008-26.736 31.472-10.256 59.92-24.464 85.344-42.672 25.408-18.208 46.080-41.36 62-69.408 15.936-28.064 23.904-63.712 23.904-106.96 0-65.248-18.112-118.88-54.32-160.992z" />
<glyph unicode="&#xe171;" glyph-name="PRIcons-send" data-tags="PRIcons_send" d="M3.344 2.576c-14.144-57.36 17.92-82.56 71.216-56l909.456 453.136c53.312 26.544 53.312 70.016 0 96.56l-909.456 453.152c-53.296 26.56-85.36 1.36-71.216-56l66.528-270.064c14.128-57.36 74.128-110.528 133.296-118.16l368.992-57.2-368.992-57.2c-59.168-7.632-119.168-60.784-133.296-118.16l-66.528-270.064z" />
<glyph unicode="&#xe225;" glyph-name="PRIcons-piggy-bank" data-tags="PRIcons_piggy-bank" d="M969.344 583.829h-1.707c-30.485 0-56.661 17.003-70.080 42.155l-0.171 0.299c-69.184 140.139-235.072 238.848-428.715 238.848-153.728 0-289.963-62.208-374.208-157.973l-0.256-0.107c-9.877 7.829-22.656 12.885-36.245 12.885-32.021 0-57.984-25.984-57.984-58.005 0-22.677 13.397-42.603 32.32-52.16l0.085 0.064c-17.365-40.427-26.837-83.968-26.837-129.344 0-92.331 39.168-177.088 104.469-243.371l1.195-1.067c0 0 72.533-67.947 100.011-109.931 33.301-50.88 40.469-94.677 40.469-94.677l127.403-0.171v0.192c0 69.397 39.872 126.613 89.152 126.613 49.259 0 88.917-57.365 88.917-126.784l0.405-0.213 128.043-0.171c0 0 7.168 43.819 40.469 94.677 27.499 41.984 102.784 113.109 102.784 113.109l0.747 0.747c23.403 24.128 43.349 50.645 59.243 79.040v0.043c11.755 21.461 34.005 35.52 60.181 35.52l1.131 0.021h19.2c30.165 0 54.656 24.448 54.656 54.656v120.469c-0.021 30.144-24.491 54.635-54.677 54.635zM634.944 743.467c-1.984 0-4.117 0.491-5.845 1.237l-0.064 0.085c-48.491 20.672-103.424 32.341-161.6 32.341h-0.768c-58.197 0-113.131-11.669-161.6-32.341l-0.085-0.085c-1.749-0.725-3.883-1.237-5.867-1.237-8 0-14.464 6.507-14.464 14.464 0 5.824 3.669 11.051 8.619 13.355h0.149c52.203 21.739 111.083 33.963 173.355 33.963h0.533c62.272 0 121.152-12.224 173.355-33.963h0.149c4.949-2.304 8.597-7.531 8.597-13.355-0.021-7.979-6.485-14.464-14.464-14.464zM855.488 499.307c-15.573 0-28.203 12.608-28.203 28.203 0 15.552 12.629 28.181 28.203 28.181 15.552 0 28.224-12.629 28.224-28.181-0.021-15.595-12.672-28.203-28.224-28.203z" />
<glyph unicode="&#xe235;" glyph-name="PRIcons-menu-utilities-alt" data-tags="PRIcons_menu-utilities-alt" d="M512 220.432c62.848 0 113.776-50.928 113.776-113.776 0-62.816-50.944-113.76-113.776-113.76s-113.776 50.96-113.776 113.76c0 62.864 50.928 113.776 113.776 113.776zM512 561.776c62.848 0 113.776-50.944 113.776-113.776 0-62.816-50.944-113.776-113.776-113.776s-113.776 50.96-113.776 113.776c0 62.848 50.928 113.776 113.776 113.776zM512 903.104c62.848 0 113.776-50.928 113.776-113.76s-50.944-113.776-113.776-113.776-113.776 50.96-113.776 113.776c0 62.848 50.928 113.76 113.776 113.76z" />
<glyph unicode="&#xe600;" glyph-name="PRIcons-post-it-alt" data-tags="PRIcons_post-it-alt" d="M155.040 535.728h659.264v-96h-659.264v96zM158.832 369.008h659.248v-96h-659.248v96zM956.992 650.048c-0.416 84.112-0.96 188.784-158.48 188.784h-347.424v-96h347.424c62 0 62.016-1.744 62.48-93.28l0.032-439.68h-122.512c-59.248 0-80.832-32.96-80.832-93.456v-104.128h-421.6c-23.184 0.096-84.784 0.352-94.544 10.832-10.48 11.248-10.48 73.088-10.48 102.816v552.384c0.624 37.104 7.392 48.336 7.472 48.448-0.032-0.064-4-6.192-15.664-9.936l-29.328 91.424c-21.152-6.784-56.88-32.48-58.48-129.136v-553.184c0-173.68 33.744-208.96 200.816-209.664h547.632c1.856-0.016 3.68-0.016 5.52-0.016 109.44 0 162.592 34.768 168 222.32v506.56l-0.032 4.912zM266.912 701.408c46.832-55.744 114.336-135.312 129.344-148.768 14.512-13.024 29.184-15.76 38.928-15.76 25.856 0 54.4 19.584 56.032 62.576l0.448 12.048-90.192 184.64c3.008 10.96 4.736 22.432 4.736 34.336 0.032 71.52-57.952 129.52-129.52 129.52-71.536 0-129.536-58-129.536-129.536 0.016-68.24 52.816-124.048 119.76-129.056z" />
<glyph unicode="&#xe601;" glyph-name="PRIcons-spark" data-tags="PRIcons_spark" d="M1009.312 524.736c-22.576 15.136-58 9.088-83.552 9.472-67.008 1.008-201.056 2.96-201.056 2.96s61.52 53.728 72.192 92.912c11.024 40.48-12.672 81.232-29.808 116.432-13.664 28.048-33.456 80.624-73.248 52.96-17.264-12.016-31.456-30.56-45.92-45.696-16.048-16.816-48.064-50.528-48.064-50.528l-109.536-114.56-97.936 109.664-1.424-154.656-125.616 2.464c0 0-100.048 7.504-135.152-30.144-17.104-18.336-70.624-120.528-65.856-139.504 6.176-24.592 33.44-28.864 82.208-30 35.216-1.184 112.64 0.384 112.64 0.384s-73.232-77.872-110.096-116.496c-22.224-23.296-71.344-70.192-16.24-89.44 44.144-15.424 97.584-41.584 145.408-33.024 46.048 8.24 109.456 85.632 109.456 85.632l104.608 106.64 104.528-113.248 0.88 150.272c0 0 125.376-3.664 124.032-3.76-3.968-0.256 68.672-0.656 102.688-1.696 29.328-0.928 60.608-5.312 89.664 0.128 53.408 9.968 68.672 61.168 87.856 105.040 11.296 25.856 39.024 66.496 7.344 87.792zM491.552 663.024l71.664 74.96c0 0 19.296 20.336 35.488 37.328-0.4 28.56-0.784 59.504-0.928 81.2-0.080 15.776-0.48 36-16.288 44.768-16.464 9.136-35.712-1.248-50.944-7.808-39.936-17.28-95.44-33.088-120.16-71.712-8.080-12.608-12.672-31.472-15.296-50.736l96.464-108zM491.168 226.96l-65.92-67.216c-7.264-8.752-20.256-23.664-36.672-39.472 0.304-36.144 0.448-78.096-0.144-106.464-0.432-20.336 0.512-40.752 17.536-54.608 20.704-16.848 54.384 1.296 76.272 8.352 42.752 13.776 90.608 20.576 108.384 68.144 8.336 22.304 4.736 45.856 4.88 69.056 0.016 2.176 0.048 5.424 0.096 9.056l-104.432 113.152zM267.488 596.576l73.424-1.44 0.96 103.648 0.496 52.608c-29.344 32.080-65.136 71.2-88.784 97.168-15.136 16.624-46.336 63.344-70.864 63.2-29.968-0.16-39.008-35.056-49.088-58.464-12.24-28.336-29.504-56.816-30.928-88.352-1.28-28.832 11.568-54.864 31.008-75.504 23.040-24.432 57.248-62.128 85.024-92.96 8.352 0.496 17.008 0.736 26.016 0.736 11.136 0 19.344-0.416 22.736-0.64zM727.904 282.752c-3.104 0.048-6.032 0.224-8.816 0.544l-0.016-0.304c-3.552 0.176-36.112 1.152-71.216 2.208l-0.576-98.576-0.352-58.848c15.2-16.848 29.952-36.368 47.84-50.288 38.208-29.744 62.72 13.072 80.496 42.24 20.96 34.368 45.456 68.784 29.856 110.576-7.312 19.584-22.56 34.176-36.256 49.376-0.688 0.768-1.536 1.76-2.256 2.592-7.312 0.080-14.304 0.176-20.416 0.24l-18.288 0.24z" />
<glyph unicode="&#xe602;" glyph-name="PRIcons-sync-no" data-tags="PRIcons_sync-no" d="M775.264 479.52c-8.080 67.376-41.84 131.68-99.392 176.928-69.872 54.928-158.688 69.168-237.968 46.16l-101.968 102.56c133.104 65.52 297.664 53.664 422.112-44.192 86.432-67.92 137.12-164.48 149.232-265.632l107.648 12.896-147.344-242.192-200.4 200.544 4.736 0.544 103.344 12.384zM154.784 627.312l1.648 2.656 200.368-200.544-4.736-0.576-103.36-12.368c8.096-67.344 41.84-131.68 99.424-176.928 69.856-54.928 158.672-69.136 237.968-46.144l101.968-102.576c-133.12-65.52-297.68-53.664-422.112 44.176-86.448 67.936-137.136 164.48-149.232 265.664l-107.664-12.896 145.728 239.536zM187.52 868.685l745.148-745.148-96.166-96.166-745.148 745.148 96.166 96.166z" />
<glyph unicode="&#xe603;" glyph-name="PRIcons-table" data-tags="PRIcons_table" d="M0 846.24v-796.448h1024v796.448h-1024zM113.776 732.448h230.224v-113.776h-230.224v113.776zM113.776 504.896h230.224v-113.776h-230.224v113.776zM113.776 277.328h230.224v-113.776h-230.224v113.776zM910.224 163.552h-452.448v113.776h452.432v-113.776zM910.224 391.104h-452.448v113.776h452.432v-113.776zM910.224 618.672h-452.448v113.776h452.432v-113.776z" />
<glyph unicode="&#xe604;" glyph-name="PRIcons-time" data-tags="PRIcons_time" d="M511.52 944c-273.776 0-495.52-222.224-495.52-496 0-273.76 221.744-496 495.52-496 274.24 0 496.48 222.24 496.48 496 0 273.776-222.24 496-496.48 496zM512 51.216c-219.232 0-396.8 177.568-396.8 396.784 0 219.248 177.568 396.8 396.8 396.8 219.216 0 396.784-177.568 396.784-396.8 0-219.216-177.568-396.784-396.784-396.784zM741.488 235.696c-6.464 0-13.12 1.696-19.12 5.328l-261.52 157.264v297.712c0 20.544 16.656 37.184 37.2 37.184 20.512 0 37.2-16.656 37.2-37.184v-255.664l225.472-135.584c17.584-10.544 23.296-33.408 12.688-51.024-6.96-11.568-19.28-18.032-31.92-18.032z" />
<glyph unicode="&#xe605;" glyph-name="PRIcons-calculator" data-tags="PRIcons_calculator" d="M743.312 782.992h-462.608c-37.28 0-67.6-30.336-67.6-67.6v-711.808c0-37.264 30.32-67.6 67.6-67.6h462.608c37.264 0 67.584 30.336 67.584 67.6v711.824c0 37.264-30.32 67.584-67.584 67.584zM749.456 3.6c0-3.328-2.816-6.16-6.144-6.16h-462.608c-3.344 0-6.144 2.832-6.144 6.16v711.808c0 3.328 2.8 6.144 6.144 6.144h462.608c3.328 0 6.144-2.816 6.144-6.144v-711.808zM672.704 663.504h-321.408c-10.32 0-18.688-8.384-18.688-18.704v-102.992c0-10.32 8.368-18.704 18.688-18.704h321.408c10.32 0 18.688 8.384 18.688 18.704v102.992c0 10.304-8.384 18.704-18.688 18.704zM495.744 461.216h-144.448c-10.32 0-18.688-8.368-18.688-18.688v-167.92c0-2.24 1.808-4.064 4.064-4.064h159.072c2.256 0 4.064 1.824 4.064 4.064v182.544c0 2.256-1.808 4.064-4.064 4.064zM455.808 356.24h-28.576c-0.752 0-1.376-0.608-1.376-1.376v-28.576c0-5.312-4.336-9.648-9.664-9.648-5.312 0-9.648 4.336-9.648 9.648v28.576c0 0.768-0.608 1.376-1.376 1.376h-28.576c-5.312 0-9.664 4.336-9.664 9.664 0 5.312 4.336 9.648 9.664 9.648h28.576c0.768 0 1.376 0.624 1.376 1.376v28.576c0 5.328 4.336 9.664 9.648 9.664 5.328 0 9.664-4.336 9.664-9.664v-28.576c0-0.752 0.624-1.376 1.376-1.376h28.576c5.328 0 9.664-4.336 9.664-9.648 0-5.344-4.336-9.664-9.664-9.664zM495.744 246.176h-159.072c-2.256 0-4.064-1.808-4.064-4.064v-167.92c0-10.32 8.368-18.688 18.688-18.688h144.448c2.256 0 4.064 1.808 4.064 4.064v182.544c0 2.24-1.808 4.064-4.064 4.064zM430.832 149.856l20.224-20.208c1.808-1.824 2.816-4.256 2.816-6.832s-1.008-5.008-2.816-6.816c-3.664-3.664-10.016-3.664-13.664 0l-20.208 20.208c-0.272 0.272-0.624 0.4-0.992 0.4-0.336 0-0.688-0.144-0.976-0.4l-20.208-20.208c-3.648-3.664-10.016-3.664-13.648 0-1.824 1.808-2.832 4.24-2.832 6.816s1.008 5.008 2.832 6.832l20.208 20.208c0.272 0.272 0.4 0.608 0.4 0.992 0 0.352-0.144 0.704-0.4 0.976l-20.208 20.208c-1.824 1.824-2.832 4.256-2.832 6.832s1.008 5.008 2.832 6.816c3.632 3.648 10 3.648 13.648 0l20.208-20.208c0.544-0.528 1.408-0.528 1.952 0l20.208 20.208c3.648 3.648 10 3.648 13.664 0 1.808-1.808 2.816-4.24 2.816-6.816s-1.008-5.008-2.816-6.832l-20.224-20.208c-0.512-0.56-0.512-1.424 0.016-1.968zM672.704 461.216h-144.432c-2.256 0-4.080-1.808-4.080-4.064v-182.544c0-2.24 1.824-4.064 4.080-4.064h159.056c2.256 0 4.064 1.824 4.064 4.064v167.92c0 10.32-8.384 18.688-18.688 18.688zM647.392 356.24h-79.2c-5.312 0-9.648 4.336-9.648 9.664 0 5.312 4.336 9.648 9.648 9.648h79.2c5.328 0 9.664-4.336 9.664-9.648-0.016-5.344-4.336-9.664-9.664-9.664zM687.328 246.176h-159.056c-2.256 0-4.080-1.808-4.080-4.064v-182.544c0-2.256 1.824-4.064 4.080-4.064h144.432c10.32 0 18.688 8.368 18.688 18.688v167.92c0 2.24-1.808 4.064-4.064 4.064zM647.392 120.4h-79.2c-5.312 0-9.648 4.336-9.648 9.648s4.336 9.664 9.648 9.664h79.2c5.328 0 9.664-4.336 9.664-9.664s-4.336-9.648-9.664-9.648zM647.392 161.984h-79.2c-5.312 0-9.648 4.32-9.648 9.648 0 5.312 4.336 9.648 9.648 9.648h79.2c5.328 0 9.664-4.336 9.664-9.648-0.016-5.328-4.336-9.648-9.664-9.648z" />
<glyph unicode="&#xe606;" glyph-name="PRIcons-calculator-dream" data-tags="PRIcons_calculator-dream" d="M495.744 693.248h-144.448c-10.32 0-18.688-8.384-18.688-18.688v-167.92c0-2.256 1.808-4.064 4.064-4.064h159.072c2.256 0 4.064 1.808 4.064 4.064v182.544c0 2.256-1.808 4.064-4.064 4.064zM455.808 588.272h-28.576c-0.768 0-1.376-0.624-1.376-1.376v-28.576c0-5.328-4.336-9.664-9.648-9.664-5.328 0-9.664 4.336-9.664 9.664v28.576c0 0.752-0.624 1.376-1.376 1.376h-28.592c-5.312 0-9.648 4.336-9.648 9.648 0 5.328 4.336 9.664 9.648 9.664h28.592c0.752 0 1.376 0.608 1.376 1.376v28.576c0 5.328 4.336 9.648 9.664 9.648 5.312 0 9.648-4.32 9.648-9.648v-28.576c0-0.768 0.608-1.376 1.376-1.376h28.576c5.312 0 9.664-4.336 9.664-9.664s-4.352-9.648-9.664-9.648zM495.744 478.208h-159.072c-2.256 0-4.064-1.824-4.064-4.064v-167.92c0-10.32 8.368-18.688 18.688-18.688h144.448c2.256 0 4.064 1.808 4.064 4.064v182.544c0 2.224-1.808 4.064-4.064 4.064zM430.816 381.888l20.224-20.224c1.808-1.808 2.832-4.24 2.832-6.816s-1.008-5.008-2.832-6.816c-3.648-3.664-10-3.664-13.648 0l-20.208 20.208c-0.272 0.272-0.624 0.4-0.992 0.4-0.336 0-0.704-0.144-0.976-0.4l-20.208-20.208c-3.664-3.664-10-3.664-13.664 0-1.808 1.808-2.816 4.24-2.816 6.816s1.008 5.008 2.816 6.816l20.224 20.224c0.256 0.256 0.4 0.608 0.4 0.976s-0.16 0.72-0.4 0.976l-20.224 20.224c-1.808 1.808-2.816 4.256-2.816 6.832 0 2.56 1.008 4.992 2.816 6.816 3.664 3.648 10 3.648 13.664 0l20.208-20.224c0.528-0.528 1.408-0.528 1.952 0l20.208 20.224c3.648 3.648 10 3.648 13.648 0 1.808-1.824 2.832-4.256 2.832-6.816 0-2.576-1.008-5.008-2.832-6.832l-20.224-20.224c-0.512-0.544-0.512-1.424 0.016-1.952zM672.704 693.248h-144.448c-2.256 0-4.064-1.808-4.064-4.064v-397.6c0-2.256 1.808-4.064 4.064-4.064h144.448c10.32 0 18.688 8.368 18.688 18.688v368.352c0 10.304-8.384 18.688-18.688 18.688zM647.392 459.952h-79.2c-5.312 0-9.664 4.336-9.664 9.648 0 5.328 4.336 9.664 9.664 9.664h79.2c5.328 0 9.648-4.336 9.648-9.664-0.016-5.312-4.32-9.648-9.648-9.648zM647.392 501.536h-79.2c-5.312 0-9.664 4.336-9.664 9.648 0 5.328 4.336 9.648 9.664 9.648h79.2c5.328 0 9.648-4.32 9.648-9.648-0.016-5.328-4.32-9.648-9.648-9.648zM238.304 152.752c1.152 0 2.304-0.032 3.456-0.112 29.232-1.856 51.472-27.136 49.616-56.368-1.776-27.888-25.024-49.744-52.912-49.744-1.152 0-2.32 0.048-3.456 0.112-29.232 1.872-51.504 27.168-49.648 56.384 1.792 27.888 25.040 49.728 52.944 49.728v0zM238.304 184.64c-44.464-0.016-81.872-34.592-84.72-79.6-2.992-46.832 32.56-87.216 79.392-90.208 1.84-0.112 3.664-0.176 5.488-0.176 44.464 0 81.856 34.576 84.72 79.568 2.976 46.832-32.576 87.232-79.408 90.224-1.84 0.128-3.664 0.192-5.472 0.192v0zM63.744 67.76c17.568 0 31.856-14.288 31.856-31.856s-14.304-31.856-31.856-31.856c-17.584 0-31.872 14.304-31.872 31.856 0 17.584 14.288 31.856 31.872 31.856zM63.744 99.648c-35.216 0-63.744-28.544-63.744-63.744 0-35.184 28.528-63.744 63.744-63.744 35.184 0 63.712 28.56 63.712 63.744 0 35.2-28.528 63.744-63.712 63.744v0zM444.912 891.952c46.272 0 91.424-12.832 130.512-37.088 38.064-23.648 69.088-57.12 89.68-96.848l10.864-20.928 23.184 4.272c14.8 2.72 29.952 4.096 45.040 4.096 33.472 0 65.952-6.56 96.48-19.472 29.52-12.496 56.032-30.368 78.816-53.152s40.672-49.296 53.152-78.816c12.912-30.528 19.456-63.008 19.456-96.48 0-61.984-22.976-121.312-64.72-167.040-41.472-45.456-97.888-73.76-158.848-79.68l-17.68-1.728-7.824-15.952c-17.744-36.112-45.072-66.64-79.088-88.256-34.88-22.192-75.312-33.952-116.896-33.952-41.36 0-81.6 11.616-116.352 33.6-33.872 21.408-61.216 51.632-79.056 87.44l-8.784 17.648h-134.368c-47.184 0-91.536 18.368-124.88 51.728-33.36 33.344-51.712 77.696-51.712 124.88 0 20.816 3.568 41.168 10.64 60.512 6.816 18.688 16.704 36.016 29.408 51.472 25.504 31.040 61.040 52.64 100.080 60.832l26.608 5.6-1.312 27.136c-0.208 4.176-0.32 8.304-0.32 12.304 0 33.472 6.544 65.936 19.472 96.496 12.48 29.52 30.352 56.032 53.136 78.816s49.296 40.656 78.816 53.136c30.544 12.88 63.008 19.424 96.496 19.424zM444.912 923.84c-154.528 0-279.808-125.28-279.808-279.792 0-4.656 0.128-9.264 0.352-13.84-94.496-19.824-165.456-103.632-165.456-204.016 0-115.136 93.328-208.48 208.48-208.48h114.672c40.96-82.192 125.84-138.672 223.92-138.672 98.608 0 183.872 57.104 224.576 140.016 141.648 13.792 252.352 133.184 252.352 278.464 0 154.528-125.264 279.792-279.792 279.792-17.344 0-34.32-1.584-50.8-4.608-46.576 89.76-140.368 151.136-248.496 151.136v0z" />
<glyph unicode="&#xe607;" glyph-name="PRIcons-audio-file" data-tags="PRIcons_audio-file" d="M896 960h-768c-70.4 0-128-57.6-128-128v-768c0-70.4 57.6-128 128-128h768c70.352 0 128 57.6 128 128v768c0 70.4-57.648 128-128 128zM151.328 410.448h-75.088v75.088h75.088v-75.088zM265.104 353.568h-75.088v188.864h75.088v-188.864zM378.88 296.672h-75.088v302.656h75.088v-302.656zM492.656 182.896h-75.088v530.208h75.088v-530.208zM606.432 296.672h-75.088v302.656h75.088v-302.656zM720.208 258.56h-75.088v378.88h75.088v-378.88zM834 372.336h-75.088v151.312h75.088v-151.312zM947.76 410.448h-75.088v75.088h75.088v-75.088z" />
<glyph unicode="&#xe608;" glyph-name="PRIcons-microphone" data-tags="PRIcons_microphone" d="M797.664 474.944c0-161.664-136.944-274.88-285.664-274.88s-285.664 113.2-285.664 274.88h-91.6c0-183.792 146.592-335.728 323.408-362.208v-176.736h107.712v176.736c176.736 25.936 323.408 177.936 323.408 362.208h-91.6zM512 313.264c89.536 0 161.136 72.208 161.136 161.664l0.528 323.328c0 89.536-72.128 161.744-161.664 161.744s-161.664-72.208-161.664-161.728v-323.328c0-89.472 72.128-161.68 161.664-161.68z" />
<glyph unicode="&#xe609;" glyph-name="PRIcons-gallery" data-tags="PRIcons_gallery" d="M0 755.216v-716.848c0-56.304 46-102.336 102.4-102.336h716.784v102.336h-716.784v716.848h-102.4zM460.8 448l103.872-138.832 152.112 190 204.816-255.984h-614.4l153.6 204.816zM1024 243.184v614.448c0 56.304-46.144 102.336-102.4 102.336h-614.4c-56.4 0-102.4-46.048-102.4-102.336v-614.432c0-56.304 46-102.4 102.4-102.4h614.4c56.256-0.016 102.4 46.096 102.4 102.384z" />
<glyph unicode="&#xe60a;" glyph-name="PRIcons-picture" data-tags="PRIcons_picture" d="M312.864 362.672l142.288-171.2 199.056 256.528 256-341.328h-796.416l199.072 256zM1024 49.792v796.48c0 62.528-51.2 113.728-113.792 113.728h-796.416c-62.592 0-113.792-51.2-113.792-113.728v-796.464c0-62.544 51.2-113.808 113.792-113.808h796.4c62.608 0 113.808 51.264 113.808 113.792z" />
<glyph unicode="&#xe60b;" glyph-name="PRIcons-refresh" data-tags="PRIcons_refresh" d="M899.84 570.736h1.328l-0.736 3.024-66.352 272.464-67.008-85.248c-67.728 53.328-153.184 85.136-246.064 85.136-219.888 0-398.192-178.256-398.192-398.16 0-219.888 178.304-398.16 398.192-398.16 175.12 0 323.856 113.056 377.136 270.208h-144.848c-45.136-81.792-132.256-137.216-232.304-137.216-146.464 0-265.184 118.72-265.184 265.168 0 146.464 118.72 265.184 265.184 265.184 61.856 0 118.752-21.216 163.856-56.736l-67.248-85.552 282.24-0.112z" />
<glyph unicode="&#xe60c;" glyph-name="PRIcons-circle-empty" data-tags="PRIcons_circle-empty" d="M512 933.968c267.952 0 485.952-218 485.952-485.968s-218-485.968-485.952-485.968c-267.968 0-485.968 218-485.968 485.968s218 485.968 485.968 485.968zM512 960c-282.784 0-512-229.232-512-512s229.216-512 512-512c282.768 0 512 229.232 512 512s-229.232 512-512 512v0z" />
<glyph unicode="&#xe60d;" glyph-name="PRIcons-auto" data-tags="PRIcons_auto" d="M1024 596.48c0 30.992-25.344 56.32-56.32 56.32l-67.376-10.24-48.816 126.976c-12.144 31.536-48.64 64.944-81.136 74.224 0 0-84.288 24.080-258.352 24.080s-258.352-24.080-258.352-24.080c-32.496-9.28-69.008-42.672-81.136-74.24l-48.832-126.96-67.36 10.24c-30.976 0-56.32-25.344-56.32-56.32s24.96-43.2 56.32-56.32l24.032-10.24-17.328-45.056c-12.144-31.52-22.064-84.976-22.064-118.784v-266.24c0-39.424 32.272-71.68 71.68-71.68s71.664 32.272 71.664 71.68v40.96h655.376v-40.96c0-39.424 32.256-71.68 71.664-71.68s71.68 32.272 71.68 71.68v266.24c0 33.808-9.92 87.264-22.064 118.784l-17.344 45.056 24.048 10.24c30.096 11.52 56.336 25.344 56.336 56.32zM181.152 569.6l57.536 156.144c3.888 10.576 16.304 19.216 27.552 19.216h491.52c11.248 0 23.664-8.64 27.552-19.2l57.536-156.144c3.872-10.576-2.144-19.216-13.408-19.216h-634.88c-11.264 0-17.296 8.64-13.408 19.2zM225.28 263.68c-45.232 0-81.92 36.72-81.92 81.92 0 45.216 36.688 81.92 81.92 81.92s81.92-36.72 81.92-81.92c0-45.216-36.688-81.92-81.92-81.92zM798.72 263.68c-45.264 0-81.92 36.672-81.92 81.92s36.656 81.92 81.92 81.92 81.92-36.672 81.92-81.92-36.656-81.92-81.92-81.92z" />
<glyph unicode="&#xe60e;" glyph-name="PRIcons-contact-manager" data-tags="PRIcons_contact-manager" d="M0 166.224h160v-64h-160v64zM0 793.776h160v-64h-160v64zM0 480h160v-64h-160v64zM64 832h128v-144h-128v-176h128v-128h-128v-176h128v-144h-128v-128h960v1024h-960v-128zM960 896v-896h-640v896h640zM768 576c0-70.692-57.308-128-128-128s-128 57.308-128 128c0 70.692 57.308 128 128 128s128-57.308 128-128zM839.44 192v98.528c0 43.136-40.8 63.040-78.464 78.432 0 0-68.448 31.424-113.584 31.424-45.424 0-113.504-31.424-113.504-31.424-40.784-17.264-78.448-35.296-78.448-78.432v-98.528h384z" />
<glyph unicode="&#xe60f;" glyph-name="PRIcons-contact" data-tags="PRIcons_contact" d="M953.728 19.952h-182.432v61.936h-39.856v-61.936h-438.88v61.936h-39.856v-61.936h-182.432c-38.736 0-70.272 31.52-70.272 70.256v715.568c0 38.736 31.536 70.272 70.272 70.272h398.576c38.736 0 70.272-31.52 70.272-70.272v-24.544h414.624c38.736 0 70.272-31.52 70.272-70.272v-620.752c-0.016-38.736-31.552-70.256-70.288-70.256zM845.12 93.776h105.040v613.632h-484.896v94.816h-391.44v-708.432h105.040v61.936h187.52v-61.936h291.216v61.936h187.52v-61.952zM408.624 547.664c0-53.002-42.966-95.968-95.968-95.968s-95.968 42.966-95.968 95.968c0 53.002 42.966 95.968 95.968 95.968s95.968-42.966 95.968-95.968zM448.064 281.008v69.504c0 30.416-28.768 44.464-55.344 55.328 0 0-48.288 22.176-80.112 22.176-32.048 0-80.064-22.176-80.064-22.176-28.768-12.176-55.344-24.896-55.344-55.328v-69.504h270.864zM828 387.040h-311.232c-2.624 0-4.768-2.208-4.768-4.928v-22.16c0-2.704 2.144-4.912 4.768-4.912h311.232c2.656 0 4.768 2.208 4.768 4.912v22.16c0 2.736-2.112 4.928-4.768 4.928zM825.904 459.376h-309.424c-2.464 0-4.48-2.192-4.48-4.928v-22.16c0-2.704 2.016-4.912 4.48-4.912h309.424c2.496 0 4.48 2.208 4.48 4.912v22.16c0 2.736-1.984 4.928-4.48 4.928zM825.904 531.648h-309.424c-2.464 0-4.48-2.192-4.48-4.928v-22.16c0-2.704 2.016-4.912 4.48-4.912h309.424c2.496 0 4.48 2.208 4.48 4.912v22.16c0 2.72-1.984 4.928-4.48 4.928z" />
<glyph unicode="&#xe610;" glyph-name="PRIcons-columns" data-tags="PRIcons_columns" d="M0 640h256v-704h-256v704zM384 640h256v-704h-256v704zM768 640h256v-704h-256v704zM0 960h256v-192h-256v192zM384 960h256v-192h-256v192zM768 960h256v-192h-256v192z" />
<glyph unicode="&#xe611;" glyph-name="PRIcons-earphone" data-tags="PRIcons_earphone" d="M1024 151.264c0-13.088-2.416-30.16-7.264-51.264s-9.952-37.696-15.28-49.824c-10.192-24.224-39.76-49.92-88.72-77.072-45.584-24.752-90.688-37.104-135.28-37.104-13.104 0-25.824 0.848-38.192 2.544s-26.288 4.72-41.808 9.104c-15.52 4.352-27.040 7.872-34.56 10.528-7.504 2.672-20.944 7.664-40.352 14.928-19.392 7.248-31.28 11.632-35.616 13.072-47.536 16.976-89.968 37.088-127.296 60.384-62.048 38.304-126.176 90.544-192.336 156.736-66.192 66.16-118.432 130.288-156.736 192.352-23.28 37.328-43.392 79.728-60.368 127.248-1.44 4.384-5.808 16.256-13.072 35.664-7.28 19.392-12.24 32.832-14.912 40.336-2.688 7.52-6.208 19.056-10.576 34.544-4.368 15.52-7.392 29.456-9.088 41.824s-2.544 25.104-2.544 38.176c0 44.608 12.368 89.68 37.104 135.296 27.136 48.96 52.832 78.528 77.072 88.704 12.128 5.344 28.72 10.432 49.824 15.296 21.088 4.848 38.176 7.264 51.28 7.264 6.8 0 11.872-0.736 15.264-2.176 8.736-2.928 21.584-21.344 38.56-55.28 5.328-9.2 12.608-22.304 21.808-39.296 9.216-16.96 17.68-32.336 25.44-46.16 7.76-13.84 15.28-26.8 22.544-38.928 1.472-1.92 5.712-7.984 12.736-18.176 7.024-10.176 12.24-18.784 15.632-25.824 3.408-7.040 5.104-13.92 5.104-20.72 0-9.696-6.912-21.808-20.72-36.336-13.824-14.544-28.864-27.888-45.088-40-16.24-12.112-31.28-24.992-45.088-38.56s-20.72-24.704-20.72-33.44c0-4.368 1.216-9.84 3.648-16.352 2.416-6.56 4.496-11.536 6.176-14.896 1.696-3.424 5.088-9.232 10.192-17.504 5.088-8.24 7.872-12.816 8.368-13.792 36.848-66.432 79.024-123.408 126.528-170.912 47.52-47.536 104.48-89.696 170.912-126.544 0.96-0.48 5.584-3.28 13.84-8.352 8.24-5.104 14.032-8.496 17.424-10.192 3.424-1.696 8.384-3.744 14.928-6.208 6.56-2.4 12-3.616 16.336-3.616 8.72 0 19.904 6.912 33.456 20.72 13.584 13.808 26.416 28.848 38.544 45.088s25.456 31.296 40.016 45.088c14.528 13.792 26.672 20.704 36.352 20.704 6.784 0 13.68-1.696 20.736-5.056 7.040-3.408 15.632-8.64 25.808-15.648 10.192-7.024 16.256-11.296 18.192-12.752 12.112-7.248 25.088-14.784 38.912-22.544 13.824-7.728 29.2-16.224 46.16-25.456 16.992-9.2 30.080-16.48 39.28-21.792 33.968-16.992 52.384-29.808 55.264-38.544 1.44-3.392 2.176-8.464 2.176-15.28z" />
<glyph unicode="&#xe612;" glyph-name="PRIcons-connectivity-problem" data-tags="PRIcons_connectivity-problem" d="M612.144 657.104h149.616v-585.296h-149.616v585.296zM204.048 367.472h149.6v-295.664h-149.6v295.664zM408.080 512.304h149.616v-440.48h-149.616v440.48zM0 221.424h149.616v-149.616h-149.616v149.616zM997.152 329.84h-123.616l-25.856 494.976h175.312l-25.84-494.976zM1024 159.856c0-48.963-39.693-88.656-88.656-88.656s-88.656 39.693-88.656 88.656c0 48.963 39.693 88.656 88.656 88.656s88.656-39.693 88.656-88.656z" />
<glyph unicode="&#xe613;" glyph-name="PRIcons-dashboard" data-tags="PRIcons_dashboard" d="M1023.952 287.168c-0.144 1.712-0.224 3.488-0.384 5.2-26.016 259.584-245.088 462.24-511.52 462.24-265.28 0-483.584-200.944-511.136-458.896-0.368-3.376-0.624-6.784-0.912-10.176 0.448-24.96 20.8-45.056 45.856-45.056h327.312c0.592 71.968 55.92 130.8 126.4 136.992l249.408 191.168c0.624 0.48 2.528 1.968 5.168 3.472l0.112 0.064c10.24 6.128 21.92 9.344 33.872 9.344 17.616 0 34.176-6.864 46.576-19.28 21.44-21.424 25.536-54.112 10.176-80.096-0.512-0.976-1.088-1.904-1.712-2.848l-0.592-0.992-1.328-1.728-181.024-236.112h317.872c25.36 0 45.904 20.56 45.904 45.904 0 0.272-0.032 0.544-0.048 0.8zM287.184 465.712c-6.368-6.368-14.72-9.568-23.072-9.568s-16.72 3.184-23.072 9.568l-51.92 51.92c-12.752 12.736-12.752 33.408-0.016 46.16 12.752 12.752 33.44 12.752 46.176 0l51.92-51.904c12.736-12.752 12.736-33.424-0.016-46.176zM544.688 591.392c0-18.032-14.624-32.64-32.64-32.64-18.032 0-32.656 14.608-32.656 32.64v73.44c0 18.032 14.624 32.656 32.656 32.656 18.016 0 32.64-14.624 32.64-32.656v-73.44zM805.856 533.36c-1.136 1.152-2.384 2.144-3.68 3.024-0.416 0.288-0.88 0.496-1.312 0.752-0.912 0.544-1.824 1.040-2.768 1.472-0.528 0.24-1.072 0.4-1.616 0.592-0.928 0.32-1.824 0.608-2.768 0.832-0.56 0.128-1.12 0.224-1.68 0.32-0.976 0.16-1.904 0.24-2.88 0.288-0.608 0.016-1.232 0.048-1.824 0.032-0.512-0.016-1.024-0.048-1.536-0.096-0.8-0.080-1.584-0.208-2.368-0.336-0.48-0.096-0.992-0.192-1.472-0.32-0.832-0.208-1.664-0.48-2.48-0.784-0.4-0.144-0.8-0.272-1.2-0.432-1.2-0.496-2.368-1.088-3.504-1.792l-0.368-0.208c-0.16-0.096-0.32-0.224-0.48-0.336l-259.84-199.216c-0.752 0.016-1.488 0.112-2.256 0.112-32.256 0-60.768-15.664-78.608-39.728-11.856-15.984-19.008-35.664-19.248-57.056-0.016-0.368-0.064-0.752-0.064-1.136 0-54.080 43.84-97.936 97.92-97.936 21.824 0 41.92 7.232 58.208 19.312 24.064 17.84 39.728 46.368 39.728 78.64 0 0.368-0.064 0.752-0.064 1.12s-0.048 0.736-0.048 1.088l199.184 259.84c0.112 0.192 0.256 0.336 0.336 0.496l0.192 0.352c6.096 9.728 4.976 22.672-3.504 31.104z" />
<glyph unicode="&#xe614;" glyph-name="PRIcons-maple-leaf" data-tags="PRIcons_maple-leaf" d="M511.984 960l-82.8-154.432c-9.408-16.784-26.224-15.216-43.056-5.856l-59.952 31.040 44.672-237.184c9.392-43.36-20.768-43.36-35.632-24.608l-104.624 117.088-16.992-59.472c-1.952-7.792-10.576-16-23.488-14.048l-132.288 27.808 34.736-126.32c7.44-28.112 13.248-39.744-7.52-47.168l-47.136-22.176 227.728-184.96c9.024-6.992 13.552-19.616 10.368-30.976l-19.936-65.424c78.416 9.024 148.656 22.624 227.104 31.008 6.928 0.752 18.528-10.688 18.448-18.688l-10.336-239.632h38.144l-6.016 239.104c-0.048 8.048 10.48 19.984 17.408 19.232 78.432-8.368 148.688-21.968 227.088-31.008l-19.92 65.424c-3.2 11.36 1.344 23.984 10.352 30.976l227.728 184.96-47.136 22.176c-20.768 7.424-14.96 19.056-7.52 47.168l34.736 126.32-132.272-27.808c-12.928-1.952-21.552 6.256-23.504 14.048l-16.992 59.472-104.608-117.088c-14.88-18.752-45.040-18.752-35.648 24.608l44.688 237.184-59.968-31.040c-16.832-9.36-33.648-10.928-43.040 5.856z" />
<glyph unicode="&#xe615;" glyph-name="PRIcons-trophy" data-tags="PRIcons_trophy" d="M748.544 539.12c40.576 88 69.2 196.096 80.704 310.304h112.496c-6.704-129.584-81.952-242.928-193.2-310.304zM82.256 849.424h112.544c11.456-114.336 40.128-222.544 80.8-310.592-114.48 69.136-186.768 185.040-193.344 310.592zM832.368 887.072v0c1.632 24.176 2.464 48.512 2.464 72.88h-645.616c0-24.352 0.784-48.704 2.416-72.88h-151.008v-18.832c0-154.176 90.672-297.744 236.672-374.656 9.632-5.088 19.424-9.792 29.424-14.272 42.16-71.024 93.376-122.288 149.536-143.072 12.672-27.552 19.92-58.576 19.92-91.584 0-32.592-7.088-63.376-19.504-90.672h-91.664l-194.672-109.008v-109.040h685.632v109.040l-194.672 109.008h-91.664c-12.416 27.296-19.504 58.080-19.504 90.672 0 33.36 7.424 64.88 20.368 92.624 55.12 21.456 105.376 72.288 146.912 142.208 157.248 70.128 265.92 218 265.92 388.752v18.832h-150.96z" />
<glyph unicode="&#xe616;" glyph-name="PRIcons-box" data-tags="PRIcons_box" d="M143.728 593.744l368.272 101.36-143.296 162.704-368.704-100.544zM436.816 227.040l-292.208 80.4v-176.336l340.736-92.912v285.664zM409.68 289.088l-368.256 101.344 101.888 203.312 368.688-100.544zM880.272 593.744l-368.272 101.36 143.312 162.704 368.688-100.544zM587.2 227.040l292.192 80.4v-176.336l-340.736-92.912v285.664zM614.336 289.088l368.24 101.344-101.872 203.312-368.704-100.544z" />
<glyph unicode="&#xe617;" glyph-name="PRIcons-downline-sign" data-tags="PRIcons_downline-sign" d="M512 960c-282.768 0-512-229.216-512-512s229.232-512 512-512 512 229.216 512 512-229.232 512-512 512zM821.392 308.512c-29.088-29.088-76.256-29.088-105.328 0-24.528 24.528-28.288 61.872-11.424 90.416l-154.864 154.848c-5.92-3.488-12.336-6.176-19.136-7.92v-218.976c32.080-8.288 55.84-37.344 55.84-72.048 0-41.12-33.328-74.464-74.48-74.464s-74.464 33.344-74.464 74.464c0 34.704 23.744 63.76 55.856 72.048v218.976c-6.816 1.744-13.248 4.432-19.168 7.92l-154.864-154.848c16.864-28.544 13.104-65.888-11.424-90.416-29.088-29.088-76.224-29.088-105.328 0-29.072 29.072-29.072 76.224 0 105.312 24.528 24.528 61.872 28.304 90.432 11.456l154.864 154.832c-6.56 11.088-10.384 23.968-10.384 37.776 0 41.12 33.328 74.464 74.464 74.464s74.48-33.344 74.48-74.464c0-13.808-3.824-26.688-10.384-37.776l154.848-154.832c28.576 16.848 65.92 13.072 90.448-11.456 29.088-29.088 29.088-76.224 0.016-105.312z" />
<glyph unicode="&#xe618;" glyph-name="PRIcons-cake" data-tags="PRIcons_cake" d="M813.824 455.856c-7.984 48.080-97.072 88.016-217.008 101.024v-73.664h-0.256c0.032-0.448 0.256-0.88 0.256-1.312 0-28.464-41.232-51.552-92.096-51.552-50.832 0-92.064 23.104-92.064 51.552 0 0.432 0.208 0.864 0.24 1.312h-0.24v71.952c-112.512-14.576-194.752-53.2-202.384-99.312h-0.24v-1.104c-0.288-1.952-0.432-128.208-0.432-129.904 0-53.552 135.392-96.896 302.432-96.896 167.008 0 302.4 43.344 302.416 96.88v131.024h-0.624zM209.536 194.352v-149.184h0.24c4.864-60.592 137.072-109.168 301.28-109.168 164.192 0 296.448 48.576 301.312 109.168h0.24v148.064c-41.856-44.768-160.56-77.040-300.528-77.040-141.184 0-261.392 32.8-302.544 78.16zM473.584 654.848v-148.112h0.016c0.176-9.808 14.416-17.712 31.984-17.712s31.824 7.904 32 17.712h0.016l-0.016 146.624c-9.2-3.472-19.392-5.616-29.808-5.616-11.968-0.016-23.904 2.592-34.192 7.104zM507.76 695.728c46.24 0 83.728 37.52 83.728 83.776 0 46.288-83.728 180.448-83.728 180.48 0 0-83.68-134.208-83.68-180.48-0.016-46.256 37.456-83.776 83.68-83.776z" />
<glyph unicode="&#xe619;" glyph-name="PRIcons-grip" data-tags="PRIcons_grip" d="M0 640h1024v-80h-1024v80zM0 488h1024v-80h-1024v80zM0 336h1024v-80h-1024v80z" />
<glyph unicode="&#xe61a;" glyph-name="PRIcons-envelope" data-tags="PRIcons_envelope" d="M407.344 448l104.656-82.224 512 402.224h-1024l377.792-296.8zM1024 171.648v552.704l-348.528-276.352zM0 724.352v-552.704l348.528 276.352zM512 318.368l-134.208 106.432-377.792-296.8h1024l-377.792 296.8z" />
<glyph unicode="&#xe61b;" glyph-name="PRIcons-erase" data-tags="PRIcons_erase" d="M676.384 777.664c7.744 0 15.008-3.024 20.496-8.48l242.224-242.272c5.536-5.504 8.544-12.848 8.544-20.624-0.016-7.696-3.008-14.96-8.512-20.432l-441.536-441.52h-299.92l-112.848 112.832c-5.488 5.488-8.48 12.768-8.48 20.496 0 7.76 3.008 15.072 8.496 20.544l571.008 570.96c5.488 5.456 12.768 8.496 20.528 8.496zM676.384 821.984c-18.784 0-37.568-7.136-51.888-21.488l-570.992-570.944c-28.656-28.64-28.656-75.104 0-103.744l125.824-125.808h336.64l454.528 454.496c28.752 28.608 28.592 75.136 0 103.76l-242.24 242.24c-14.336 14.352-33.104 21.488-51.872 21.488v0zM970.496 454.512c28.752 28.656 28.592 75.12 0 103.744l-242.24 242.24c-28.608 28.656-75.104 28.656-103.744 0.080l-285.504-285.536 346.064-345.968 285.424 285.44zM0-32h1024v-32h-1024v32z" />
<glyph unicode="&#xe61c;" glyph-name="PRIcons-investments" data-tags="PRIcons_investments" d="M92.496 85.392h128.704v226.672l-128.704-116.512zM272.352 85.392h128.704v389.52l-128.704-116.528zM452.224 85.392h128.704v270.32l-128.704 116.432zM632.064 85.392h128.72v381.664l-128.72-116.736zM811.92 85.392h128.704v544.784l-128.704-116.736zM48.496 216.64l381.232 346.032 184.416-168.592 332.448 301.536 77.408-77.712v192.704h-197.424l70.608-69.952-283.104-256.784-184.368 166.784-429.712-389.952z" />
<glyph unicode="&#xe61d;" glyph-name="PRIcons-life-family" data-tags="PRIcons_life-family" d="M320 704c70.688 0 128 57.312 128 128 0 70.704-57.312 128-128 128s-128-57.296-128-128c0-70.688 57.312-128 128-128zM723.184 627.2c63.648 0 115.216 51.584 115.216 115.2 0 63.648-51.584 115.184-115.216 115.184-63.6 0-115.184-51.552-115.184-115.2 0-63.6 51.584-115.184 115.184-115.184zM826.896 598.384h-207.36c-14.848 0-28.496-4.768-39.744-12.704 20.88-15.104 34.624-39.52 34.624-67.296 0-45.952-37.248-83.2-83.216-83.2-45.936 0-83.184 37.248-83.184 83.2 0 39.168 27.168 71.792 63.616 80.624-2.048 40.624-35.312 72.992-76.448 72.992h-230.368c-42.448 0-76.816-34.384-76.816-76.8v-256c0-33.392 21.44-61.536 51.2-72.096v-254.304c0-42.416 34.368-76.8 76.8-76.8h128c22.080 0 41.712 9.536 55.664 24.496v190.704c-19.344 6.88-33.264 25.168-33.264 46.864v166.4c0 27.584 22.336 49.904 49.92 49.904h149.76c27.552 0 49.904-22.32 49.904-49.904v-166.416c0-21.696-13.936-39.968-33.28-46.864v-199.92c11.76-9.456 26.592-15.264 42.912-15.264h115.2c38.16 0 69.088 30.944 69.088 69.104v228.88c26.784 9.52 46.096 34.832 46.096 64.88v230.416c0 38.192-30.944 69.104-69.104 69.104z" />
<glyph unicode="&#xe61e;" glyph-name="PRIcons-fna" data-tags="PRIcons_fna" d="M897.84 274.512l-171.392-0.032c-0.32-0.032-32.096-0.416-72.416 19.776-54.8 27.488-100.064 80.48-131.648 153.792 31.024 72.272 73.968 123.28 127.696 151.664 40.352 21.216 73.040 21.808 76.448 21.808h0.032l0.336-0.032h170.896v-100.704l126.208 140.288-126.192 140.272v-100.72h-169.040c-8.864 0.208-54.384-0.192-110.224-28.192-34.192-17.152-65.52-41.28-93.024-71.76-16.72-18.56-32.064-39.456-45.92-62.592-13.808 23.136-29.152 44.032-45.936 62.592-27.472 30.48-58.768 54.608-93.008 71.76-55.824 28-101.248 28.384-110.224 28.192h-230.432v-79.136l232.88 0.032c0 0 31.984 0.4 72.272-19.808 54.816-27.488 100.128-80.48 131.68-153.744-31.040-72.304-73.936-123.296-127.728-151.712-40.208-21.184-73.040-21.776-76.416-21.776h-0.080l-0.256 0.032h-232.352v-79.152h230.448c0.64-0.032 1.488-0.032 2.432-0.032 13.024 0 55.952 2.224 107.776 28.224 34.24 17.168 65.52 41.264 93.008 71.776 16.784 18.544 32.128 39.408 45.936 62.576 13.84-23.168 29.2-44.032 45.92-62.576 27.52-30.528 58.832-54.624 93.024-71.776 51.872-26 94.768-28.224 107.776-28.224 1.008 0 1.808 0 2.448 0.032h169.056v-100.704l126.176 140.256-126.16 140.288v-100.688z" />
<glyph unicode="&#xe621;" glyph-name="PRIcons-group" data-tags="PRIcons_group" d="M332.672 691.456h691.328v-101.44h-691.328v101.44zM332.672 498.72h691.328v-101.44h-691.328v101.44zM332.672 305.984h691.328v-101.44h-691.328v101.44zM0 405.2v85.6c26.864 0.24 45.872 7.84 57.040 22.832 10.704 14.272 17.008 31.008 18.928 50.288 1.424 18.544 2.128 38.88 2.128 60.992 0 39.472 2.016 68.592 6.064 87.376 3.792 17.824 11.28 32.688 22.464 44.576 11.168 11.408 25.808 19.968 43.856 25.68 18.544 5.456 43.408 8.192 74.528 8.192h18.912v-85.232c-31.632 0-51.6-3.2-59.904-9.632-8.576-6.416-12.848-20.448-12.848-42.080 0-70.16-4.384-117.584-13.184-142.304-8.816-24.976-16.608-46.144-43.696-63.488 21.856-11.888 28.368-29.6 39.776-53.136 11.152-23.76 16.752-74.528 16.752-152.272 0-16.896 2.496-28.672 7.504-35.312 4.736-6.672 11.408-11.056 19.968-13.2 8.336-2.144 23.408-3.2 45.296-3.2v-85.6h-18.56c-41.12 0-72.272 5.344-93.44 16.064-21.152 10.432-35.296 25.904-42.416 46.336-7.392 19.968-11.056 54.56-11.056 103.776 0 37.088-2.016 64.32-6.064 81.664-3.792 16.4-11.28 28.896-22.464 37.44-11.2 8.576-27.712 13.472-49.584 14.64z" />
<glyph unicode="&#xe622;" glyph-name="PRIcons-menu-utilities" data-tags="PRIcons_menu-utilities" d="M284.448 448c0-62.848-50.928-113.776-113.776-113.776-62.816 0-113.776 50.944-113.776 113.776s50.96 113.776 113.776 113.776c62.848 0 113.776-50.928 113.776-113.776zM625.776 448c0-62.848-50.928-113.776-113.776-113.776-62.816 0-113.776 50.944-113.776 113.776s50.96 113.776 113.776 113.776c62.848 0 113.776-50.928 113.776-113.776zM967.104 448c0-62.848-50.928-113.776-113.776-113.776-62.816 0-113.776 50.944-113.776 113.776s50.96 113.776 113.776 113.776c62.848 0 113.776-50.928 113.776-113.776z" />
<glyph unicode="&#xe623;" glyph-name="PRIcons-sync" data-tags="PRIcons_sync" d="M675.872 656.448c-53.36 41.92-122.704 63.52-195.392 54.816-88.24-10.56-161.104-63.296-200.912-135.632l-144.624 0.416c47.792 140.448 172.528 248.432 329.712 267.232 109.152 13.088 213.264-19.344 293.36-82.32l67.008 85.232 67.072-275.424-283.504 0.112 2.96 3.728 64.32 81.84zM132.624 322.208l-0.72 3.024 283.488-0.112-67.28-85.568c53.344-41.904 122.704-63.536 195.408-54.816 88.24 10.56 161.088 63.312 200.896 135.648l144.64-0.416c-47.824-140.48-172.576-248.448-329.728-267.248-109.168-13.088-213.28 19.328-293.376 82.32l-67.008-85.232-66.32 272.4z" />
<glyph unicode="&#xe624;" glyph-name="PRIcons-sync-problem" data-tags="PRIcons_sync-problem" d="M577.312 323.104h-130.656l-27.312 523.12h185.312l-27.344-523.12zM605.68 143.488c0-51.738-41.942-93.68-93.68-93.68s-93.68 41.942-93.68 93.68c0 51.738 41.942 93.68 93.68 93.68s93.68-41.942 93.68-93.68zM261.312 597.712c-37.936-48.304-57.536-111.056-49.632-176.88 9.568-79.856 57.312-145.824 122.752-181.84l-0.368-130.928c-127.12 43.296-224.848 156.224-241.872 298.464-11.872 98.8 17.504 193.040 74.464 265.584l-77.088 60.624 249.312 60.704v-1.2l-0.16-255.424-3.344 2.688-74.064 58.208zM687.872 105.984l-2.752-0.656v1.184l0.16 255.44 3.344-2.688 74.064-58.224c37.968 48.304 57.536 111.056 49.632 176.88-9.568 79.856-57.28 145.824-122.752 181.84l0.368 130.928c127.12-43.28 224.848-156.208 241.872-298.448 11.84-98.8-17.504-193.056-74.496-265.584l77.12-60.64-246.56-60.032z" />
<glyph unicode="&#xe626;" glyph-name="PRIcons-logo-mark" data-tags="PRIcons_logo-mark" d="M743.344 621.92c15.664-11.984 31.728-27.792 45.552-42.464l1.76-1.696 10.176-10.8v0.656c0 56.864-31.904 106.176-78.688 131.28l4.176-13.808 1.344-4.128c5.312-17.504 10.688-37.072 13.216-54.896l0.336-1.808 0.144-0.816 1.984-1.52zM224 570.48c0-5.184 0.272-10.176 0.832-15.136l13.28 15.552c13.76 16.016 25.328 27.104 41.664 40.752l1.152 0.896 0.688 0.544 0.272 2.352c3.76 24.24 7.408 38.288 13.936 61.968l6.464 23.984c-46.672-25.136-78.288-74.352-78.288-130.912zM697.552 431.76l2.24-3.744 0.592-0.832 4.928 1.952c30.72 11.952 56.4 33.776 73.312 61.616l1.408 2.272 0.624 1.12-2.176 3.44c-0.352 0.368-0.56 0.672-0.832 1.12l-0.976 1.472-0.4 0.64-1.968 2.864c-55.376 79.216-146.48 131.728-250.208 133.872l-2.656 0.048h-1.312l-1.76-3.6c-9.984-19.952-15.632-42.432-15.712-66.224 0.080-9.952 1.056-19.488 2.864-28.816l0.688-3.472 0.352-1.744 5.312 0.208c2.24 0 4.272 0.144 6.112 0.144 76.528-0.016 143.216-41.088 179.568-102.336zM469.568 464.896c-17.12 30.336-27.088 65.376-27.088 102.768 0 39.008 10.736 75.52 29.44 106.688l1.792 3.056 0.848 1.504-3.952 3.44c-23.76 20.944-54.336 34.544-88.208 36.736l-2.608 0.208-1.328 0.144-2-3.584c-23.76-44.080-37.376-94.496-37.456-148.112 0.064-50.736 12.288-98.656 33.664-140.896h0.064l0.56-1.264 1.264-2.416 0.608-1.12 4 0.176c33.904 1.616 64.832 14.336 89.008 34.72l2.704 2.304 1.328 1.072-2.016 3.744-0.624 0.832zM60.208 570.752c0.144-78.512 29.2-150.112 76.96-204.96l9.296-10.736 1.808 14.24c4.624 40.112 15.84 78.464 32.416 113.728l0.752 1.648 0.4 0.864-1.088 2.656c-10.976 25.328-17.024 53.2-17.104 82.576 0.064 115.344 93.584 208.784 208.896 208.864 66.896-0.064 126.24-31.424 164.512-80.32l1.104-1.392 0.544-0.768 2.864-0.176c40.72-2.544 79.616-11.536 115.728-26.080l13.2-5.424-4.96 13.424c-44.064 119.12-158.496 204.016-293.008 204.176-172.384-0.256-312.064-139.76-312.32-312.32zM372.976 357.2c-2.208-10.272-3.648-21.008-3.648-31.968 0-22.4 4.992-43.648 13.92-62.736l1.248-2.656 0.592-1.2 4.288 0.256c105.072 5.648 196.352 63.168 248.672 147.376l1.488 2.368 0.832 1.312-2.576 3.36c-19.008 25.84-46.384 45.264-77.904 54.512l-3.216 0.928-1.584 0.464-2.512-4.208c-35.296-60.016-99.552-100.704-173.664-102.912l-3.264-0.064-1.584-0.064-1.088-4.768zM655.2 255.296l4.144 0.16c168.864 4.528 304.176 142.384 304.448 312.208-0.272 172.592-139.856 312.112-312.352 312.432-16.336-0.064-32.208-1.36-47.728-3.744l-14.432-2.304 11.584-8.864c32.064-25.008 60-55.088 82.448-89.152l0.976-1.424 0.544-0.704 2.656-0.512c97.936-17.056 172.512-102.272 172.864-205.104v-0.592c-0.064-104.624-77.040-191.296-177.248-206.448l-1.968-0.288-0.752-0.128-1.552-2.24c-23.216-33.456-51.824-62.928-84.416-87.168l-11.728-8.624 14.336-2.688c15.104-2.592 30.656-4.192 46.448-4.624l5.024-0.16h6.704zM510.336 222.832l-1.28 0.592-0.864 0.304-2.32-0.944c-18.048-6.848-40.192-12.576-59.952-16.688l-13.2-2.784c24.176-16.976 53.536-26.912 85.28-26.912 28.16 0 54.336 7.808 76.784 21.248l-24.592 6.224-3.008 0.896c-24.592 6.608-34.48 9.696-56.784 18.064zM518.016 12.88h2.32l5.728 0.112c132.080 3.456 243.504 88.608 285.984 206.736l5.008 14.016-13.472-6.064c-36.72-16.464-76.528-27.056-118.32-30.88l-1.92-0.192h-0.72l-1.712-2.080c-38.288-47.728-96.896-78.144-162.848-78.224-115.296 0.064-208.832 93.584-208.832 208.928 0 23.6 3.984 46.352 11.12 67.408l0.688 1.856 0.272 0.816-1.248 2.416c-18.416 35.728-31.168 74.816-37.248 116.16l-2.064 14.608-9.2-11.6c-41.136-52.832-65.696-119.36-65.84-191.584 0.368-169.936 135.696-307.824 304.384-312.32l5.168-0.112h2.752zM651.44 940.208c205.68 0 372.48-166.752 372.56-372.528-0.064-115.168-52.24-218.048-134.448-286.432l-1.136-0.944-0.688-0.624-0.272-2.416c-23.632-183.024-179.872-324.512-369.376-324.512h-1.84c-186.144 0.8-339.968 138.352-366.624 317.136l-0.272 1.952-0.128 0.704-1.984 1.536c-89.472 68.176-147.152 175.568-147.232 296.608 0.080 205.792 166.928 372.48 372.56 372.56 50-0.064 97.44-9.776 141.008-27.632l1.52-0.608 0.688-0.256 2.32 0.832c41.488 15.872 86.288 24.624 133.344 24.624z" />
<glyph unicode="&#xe627;" glyph-name="PRIcons-play-sign-alt" data-tags="PRIcons_play-sign-alt" d="M819.184 832h-614.4c0 0-204.784 0-204.784-204.8v-358.4c0 0 0-204.8 204.784-204.8h614.4c0 0 204.816 0 204.816 204.8v358.4c0 0 0 204.8-204.816 204.8zM728.688 430.992l-306.32-179.472c-29.44-17.248-29.472 16.88-29.472 16.88l-0.128 360c0 34.128 29.44 16.864 29.44 16.864l306.464-179.728c29.456-17.264 0.016-34.544 0.016-34.544z" />
<glyph unicode="&#xe629;" glyph-name="PRIcons-menu-navigation" data-tags="PRIcons_menu-navigation" d="M0 789.344h1024v-113.776h-1024v113.776zM0 504.912h1024v-113.776h-1024v113.776zM0 220.432h1024v-113.776h-1024v113.776z" />
<glyph unicode="&#xe62c;" glyph-name="PRIcons-navigate" data-tags="PRIcons_navigate" d="M512 960l-512-512 512-512 512 512-512 512zM432.304 474.192v-252.928h-87.728v340.672h294.576v98.704l141.328-142.56-141.328-142.576v98.688h-206.848z" />
<glyph unicode="&#xe62d;" glyph-name="PRIcons-new" data-tags="PRIcons_new" d="M584.8 617.040c0.208 4.592 0.336 9.184 0.336 13.808s-0.144 9.232-0.336 13.824c-150.576 6.96-271.424 127.808-278.432 278.4-4.576 0.208-9.152 0.336-13.776 0.336-4.64 0-9.216-0.128-13.792-0.336-7.008-150.608-127.856-271.44-278.432-278.4-0.224-4.592-0.368-9.2-0.368-13.808 0-4.624 0.144-9.232 0.336-13.808 150.576-6.992 271.44-127.824 278.432-278.416 4.576-0.224 9.152-0.336 13.792-0.336 4.624 0 9.2 0.128 13.776 0.336 7.040 150.592 127.888 271.424 278.464 278.4zM1023.728 327.936c0.16 3.424 0.272 6.88 0.272 10.352 0 3.456-0.112 6.912-0.272 10.352-112.944 5.248-203.568 95.872-208.816 208.816-3.44 0.16-6.88 0.272-10.336 0.272-3.488 0-6.928-0.096-10.352-0.272-5.248-112.944-95.872-203.568-208.816-208.816-0.16-3.44-0.272-6.896-0.272-10.352 0-3.472 0.112-6.928 0.272-10.352 112.944-5.248 203.568-95.872 208.816-208.816 3.44-0.16 6.88-0.256 10.352-0.256s6.912 0.096 10.336 0.256c5.264 112.944 95.888 203.552 208.816 208.816zM584.976 111.952c0.112 2.304 0.176 4.592 0.176 6.912 0 2.304-0.064 4.608-0.176 6.912-75.296 3.488-135.696 63.92-139.2 139.2-2.304 0.112-4.592 0.176-6.912 0.176s-4.624-0.064-6.912-0.176c-3.504-75.28-63.904-135.712-139.216-139.2-0.096-2.304-0.16-4.608-0.16-6.912 0-2.32 0.064-4.608 0.16-6.912 75.312-3.504 135.712-63.92 139.216-139.2 2.288-0.112 4.592-0.176 6.912-0.176s4.608 0.064 6.912 0.176c3.488 75.28 63.888 135.696 139.2 139.2z" />
<glyph unicode="&#xe62e;" glyph-name="PRIcons-remove-sign" data-tags="PRIcons_remove-sign" d="M874.032 810.032c-199.952 199.952-524.128 199.968-724.080 0-199.936-199.936-199.952-524.144 0-724.080 199.952-199.952 524.144-199.936 724.080 0 199.952 199.952 199.952 524.128 0 724.080zM652.784 226.752l-140.784 140.784-140.8-140.784-80.464 80.432 140.784 140.8-140.784 140.8 80.464 80.448 140.8-140.784 140.8 140.784 80.448-80.448-140.784-140.8 140.784-140.8-80.464-80.432z" />
<glyph unicode="&#xe62f;" glyph-name="PRIcons-check" data-tags="PRIcons_check" d="M944 718.128l-59.344 56.688-530.944-537.024-214.704 217.072-59.008-56.96 274.016-276.72z" />
<glyph unicode="&#xe630;" glyph-name="PRIcons-search-sign" data-tags="PRIcons_search-sign" d="M417.6 661.584c-65.712 0-119.152-53.472-119.152-119.184s53.44-119.168 119.152-119.168c65.728 0 119.184 53.456 119.184 119.168s-53.456 119.184-119.184 119.184zM512 960c-282.768 0-512-229.232-512-512s229.232-512 512-512 512 229.232 512 512-229.232 512-512 512zM762.128 197.856c-12.576-12.592-29.072-18.88-45.552-18.88s-32.992 6.288-45.552 18.88l-84.928 84.944c-14.864 14.848-20.72 35.136-18.032 54.464l-32.336 32.352c-33.632-23.040-74.288-36.544-118.112-36.544-115.616 0-209.328 93.712-209.328 209.312 0 115.616 93.712 209.344 209.328 209.344s209.328-93.728 209.328-209.344c0-43.824-13.52-84.464-36.528-118.096l32.368-32.368c19.312 2.688 39.616-3.152 54.432-18.016l84.928-84.944c25.168-25.152 25.168-65.968-0.016-91.104z" />
<glyph unicode="&#xe631;" glyph-name="PRIcons-document" data-tags="PRIcons_document" d="M587.648 960h-471.296v-1024h791.28v704l-319.984 320zM817.12 640h-229.472v229.488l229.472-229.488zM843.648 0h-663.296v896h343.28v-320h320v-576z" />
<glyph unicode="&#xe632;" glyph-name="PRIcons-document-pdf" data-tags="PRIcons_document-pdf" d="M513.12 364.24l-15.040 17.872-15.296-27.424c-12.864-22.032-25.696-43.136-38.48-63.104 26.56 12.816 60.96 28.736 97.296 43.28-9.488 9.104-18.976 18.88-28.48 29.376zM587.648 960h-471.296v-1024h791.28v704l-319.984 320zM800 277.312c-22.88 49.728-92.448 54.112-168.432 41.136 88.752-51.728 161.056-37.312 161.056-37.312-7.568-59.744-106.56-65.184-218.272 24.832-60.896-15.792-119.488-38.144-155.568-53.008-92.896-135.888-174.768-202.432-192.368-122.4-22.304 101.408 116.8 114.624 116.8 114.624-78.208-31.904-87.68-115.072-69.76-96.448 105.264 112.96 164.16 204.8 197.008 274.064-72.64 123.84-68.704 276.256 16.176 245.088 65.84-24.16 34.432-82.736 34.432-82.736s-8.784 71.616-49.872 60.384c-9.776-2.352-21.872-92.496 18.096-178.416 26.944 72.256 21.52 109.792 21.52 109.792s68.176-17.008 6.192-156.24c7.568-10.048 16.032-19.776 25.568-29.008 14.176-15.52 28.336-28.944 42.368-40.544 41.76 14.464 83.008 24.944 115.2 24.944 102.56-0.016 99.856-98.752 99.856-98.752zM587.648 640v229.488l229.472-229.488h-229.472z" />
<glyph unicode="&#xe633;" glyph-name="PRIcons-pol" data-tags="PRIcons_pol" d="M986.384 105.152c-34.288-17.744-71.104-26.512-108.688-32-51.824-7.552-103.632-6.528-155.872-0.88-80.976 8.768-148.336 40.368-201.856 104.832-83.632 100.784-83.904 225.968-24.736 332.864 14.72 26.608 36.336 49.584 63.664 68.336 48.848 33.536 131.616 32.032 168.448-0.064 18.24-15.856 26.192-34.576 20.96-58.288-5.328-24.048-21.712-37.184-44.352-42.8-16.24-3.984-32.544-3.744-48.576 1.664-11.52 3.936-23.008 8.096-35.52 12.496-8.32-14.976 1.28-25.552 7.712-34.416 41.456-57.104 89.648-73.472 153.616-61.232 61.36 11.728 102.688 51.232 116.432 115.152 22.432 104.352-17.344 188-114.88 242.144-49.36 27.36-102.368 40.304-158.96 43.088-102.848 5.072-197.232-21.632-285.344-73.136-70.304-41.104-128.064-96.464-173.696-165.376-46.64-70.384-77.792-146.88-93.984-229.92-3.984-20.448-7.104-41.12-9.712-61.808-0.992-7.808-2.736-16.832 8.736-25.248 29.184 81.808 54.736 164.416 107.488 233.504 41.904 58.768 87.008 113.648 160.928 134.72-7.664-11.456-15.616-22.72-23.008-34.336-27.632-43.312-45.392-90.432-52.896-141.6-0.72-5.008-3.568-30.656-5.264-35.536-1.024-49.104 0.464-77.024 12.48-125.088 12.016-48.048 29.424-93.232 59.76-132.592 3.664-4.768 5.664-10.928 8.416-16.416 14.208-14.848 28.4-29.584 43.824-43.312 107.312-95.648 230.736-129.36 370.624-104.128 84.368 15.264 159.456 52.48 229.744 100.512 14.384 9.824 31.136 18.864 41.888 37.6-16.736 5.024-26.976-3.328-37.376-8.736zM252.88 709.808c87.904 70.928 187.952 112.384 300.544 124.592 89.904 9.728 173.744-6.624 252.192-49.712 122.208-67.104 164.208-203.504 117.632-317.68-37.232-91.232-148.56-136.592-236.544-95.792-33.44 15.536-60.784 37.856-84.592 65.584 7.76-36.976 30.528-63.456 60.192-83.184 72.048-48.016 149.168-47.136 226.672-17.472 59.936 22.976 99.504 67.792 120.080 130.096 13.936 42.192 17.664 84.016 13.168 129.12-8.416 85.52-46.848 154.032-108 207.952-81.28 71.664-179.904 101.232-286.384 104.864-64 2.176-126.608-7.456-187.952-25.424-121.776-35.584-225.024-101.952-302.704-203.744-79.888-104.672-113.68-227.696-119.968-359.088-0.528-11.136-2.8-23.232 5.856-32.944 2 5.92 4.88 11.664 5.808 17.744 7.664 49.68 20.512 97.84 37.968 144.96 38.656 104.304 100.8 191.376 186.032 260.128zM207.056 355.296c0.704 8.624 3.744 18.688-3.968 25.968-4.032 0.624-6.336-1.12-8.144-3.824-32.464-49.296-54.32-103.216-60-162.304-4.752-49.152-6-99.088 36.304-135.984 43.728-11.632 54.128-8.128 74.16 24.976 2.256 28.752-4.384 55.728-14.032 82.528-19.568 54.4-29.056 110.432-24.32 168.64zM171.664 815.728c15.136 3.008 29.376 9.216 42.432 17.504 39.984 25.376 81.424 47.728 124.944 66.032 4.528 1.904 9.904 2.832 13.008 12-4.256 2.624-7.392 5.664-11.040 6.768-48.416 14.416-97.312 13.44-144.896-1.552-27.184-8.56-53.296-22.624-63.568-53.904-10.128-30.784 8.24-53.040 39.12-46.848zM35.456 616.432c15.936 19.552 28.752 41.232 41.92 69.248-34.192-5.92-58.032-17.792-71.968-46.096-4.608-9.44-9.664-19.744 0.56-28.16 10.832-8.944 21.76-4.464 29.488 5.008z" />
<glyph unicode="&#xe634;" glyph-name="PRIcons-calculator-loan" data-tags="PRIcons_calculator-loan" d="M495.744 461.216h-144.448c-10.32 0-18.704-8.384-18.704-18.688v-167.92c0-2.256 1.824-4.064 4.064-4.064h159.088c2.24 0 4.064 1.808 4.064 4.064v182.544c0 2.256-1.824 4.064-4.064 4.064zM455.808 356.24h-28.576c-0.768 0-1.392-0.608-1.392-1.376v-28.576c0-5.312-4.32-9.664-9.648-9.664-5.312 0-9.648 4.336-9.648 9.664v28.576c0 0.768-0.624 1.376-1.376 1.376h-28.592c-5.312 0-9.648 4.336-9.648 9.664 0 5.312 4.336 9.648 9.648 9.648h28.592c0.752 0 1.376 0.608 1.376 1.376v28.576c0 5.328 4.336 9.664 9.648 9.664 5.328 0 9.648-4.336 9.648-9.664v-28.576c0-0.768 0.624-1.376 1.392-1.376h28.576c5.312 0 9.648-4.336 9.648-9.648 0-5.344-4.336-9.664-9.648-9.664zM495.744 246.176h-159.088c-2.24 0-4.064-1.808-4.064-4.064v-167.92c0-10.32 8.384-18.688 18.704-18.688h144.448c2.24 0 4.064 1.808 4.064 4.064v182.544c0 2.24-1.824 4.064-4.064 4.064zM430.816 149.856l20.224-20.208c1.808-1.824 2.832-4.256 2.832-6.832s-1.008-5.008-2.832-6.816c-3.648-3.664-10-3.664-13.648 0l-20.208 20.208c-0.288 0.272-0.624 0.4-0.992 0.4s-0.704-0.144-0.992-0.4l-20.192-20.208c-3.664-3.664-10.016-3.664-13.664 0-1.808 1.808-2.832 4.24-2.832 6.816s1.008 5.008 2.832 6.832l20.224 20.208c0.256 0.256 0.4 0.608 0.4 0.976s-0.16 0.72-0.4 0.992l-20.224 20.208c-1.808 1.824-2.832 4.256-2.832 6.832s1.008 4.992 2.832 6.816c3.648 3.648 10 3.648 13.664 0l20.192-20.208c0.544-0.528 1.424-0.528 1.968 0l20.208 20.208c3.648 3.648 10 3.648 13.648 0 1.808-1.824 2.832-4.24 2.832-6.816s-1.008-5.008-2.832-6.832l-20.224-20.208c-0.512-0.56-0.512-1.44 0.016-1.968zM672.704 461.216h-144.448c-2.256 0-4.064-1.808-4.064-4.064v-182.544c0-2.256 1.808-4.064 4.064-4.064h159.072c2.256 0 4.064 1.808 4.064 4.064v167.92c0 10.304-8.384 18.688-18.688 18.688zM647.392 356.24h-79.2c-5.312 0-9.664 4.336-9.664 9.664 0 5.312 4.336 9.648 9.664 9.648h79.2c5.328 0 9.648-4.336 9.648-9.648-0.016-5.344-4.32-9.664-9.648-9.664zM687.328 246.176h-159.072c-2.256 0-4.064-1.808-4.064-4.064v-182.544c0-2.256 1.808-4.064 4.064-4.064h144.448c10.304 0 18.688 8.368 18.688 18.688v167.92c0 2.24-1.808 4.064-4.064 4.064zM647.392 120.4h-79.2c-5.312 0-9.664 4.336-9.664 9.648s4.336 9.664 9.664 9.664h79.2c5.328 0 9.648-4.336 9.648-9.664s-4.32-9.648-9.648-9.648zM647.392 161.968h-79.2c-5.312 0-9.664 4.336-9.664 9.664 0 5.312 4.336 9.648 9.664 9.648h79.2c5.328 0 9.648-4.336 9.648-9.648-0.016-5.328-4.32-9.664-9.648-9.664zM522 766.656c-22.32 9.232-26.080 13.952-26.080 21.056 0 3.152 1.328 13.44 18.448 13.44 12.56 0 20.864-3.76 26.032-6.592 2.528-1.392 5.584-1.344 8.048 0.128s3.984 4.128 3.984 7.008v19.392c0 3.312-2 6.288-5.056 7.536-6.192 2.496-12.656 4.16-19.616 4.992v16.768c0 4.496-3.648 8.144-8.128 8.144h-15.552c-4.48 0-8.128-3.648-8.128-8.144v-18.752c-23.216-6.304-37.856-24.128-37.856-46.928 0-28.832 23.52-41.92 46.432-50.912 20.448-8.288 23.264-15.616 23.264-22.304 0-9.84-8.72-16.448-21.712-16.448-13.872 0-24.592 5.264-29.744 8.4-2.512 1.52-5.664 1.584-8.224 0.144s-4.144-4.144-4.144-7.072v-20.144c0-3.216 1.888-6.128 4.832-7.424 7.568-3.376 16.496-5.696 25.408-6.688v-17.696c0-4.496 3.648-8.128 8.128-8.128h15.776c4.496 0 8.144 3.632 8.144 8.128v19.536c23.952 6.56 39.616 25.632 39.616 49.152 0 31.488-23.472 45.088-43.872 53.408zM743.296 782.992h-84.96v131.648c0 25.024-20.32 45.36-45.328 45.36h-202.016c-25.008 0-45.344-20.336-45.344-45.36v-131.664h-84.96c-37.264 0-67.584-30.32-67.584-67.584v-711.808c0-37.264 30.32-67.6 67.584-67.6h462.608c37.264 0 67.6 30.336 67.6 67.6v711.824c0 37.264-30.336 67.584-67.6 67.584zM427.072 898.56h169.824v-302.144h-169.824v302.144zM749.44 3.6c0-3.328-2.816-6.16-6.144-6.16h-462.608c-3.328 0-6.144 2.832-6.144 6.16v711.808c0 3.328 2.816 6.144 6.144 6.144h84.96v-58.048h-14.336c-10.32 0-18.704-8.384-18.704-18.704v-103.008c0-10.304 8.384-18.688 18.704-18.688h321.408c10.304 0 18.688 8.384 18.688 18.688v103.008c0 10.32-8.384 18.704-18.688 18.704h-14.352v58.048h84.96c3.328 0 6.144-2.816 6.144-6.144v-711.808z" />
<glyph unicode="&#xe635;" glyph-name="PRIcons-calculator-savings" data-tags="PRIcons_calculator-savings" d="M743.312 782.992h-85.792c0.544 5.184 0.848 10.432 0.848 15.76 0 80.704-65.664 146.352-146.336 146.352-80.72 0-146.352-65.664-146.352-146.352 0-5.328 0.32-10.576 0.864-15.76h-85.808c-37.264 0-67.6-30.32-67.6-67.584v-711.808c0-37.264 30.336-67.6 67.6-67.6h462.608c37.264 0 67.584 30.336 67.584 67.6v711.808c-0.032 37.264-30.352 67.584-67.616 67.584zM512.016 883.664c46.816 0 84.912-38.096 84.912-84.912 0-16.832-5.008-32.48-13.504-45.68-21.136 11.872-45.472 18.736-71.408 18.736-25.952 0-50.32-6.864-71.456-18.768-8.48 13.216-13.472 28.896-13.472 45.712 0 46.816 38.096 84.912 84.928 84.912zM512.016 710.336c46.816 0 84.912-38.080 84.912-84.912 0-9.904-1.76-19.712-5.184-29.008h-159.456c-3.424 9.296-5.184 19.104-5.184 29.008-0.016 46.848 38.080 84.912 84.912 84.912zM749.456 3.6c0-3.328-2.816-6.16-6.144-6.16h-462.608c-3.328 0-6.144 2.832-6.144 6.16v711.808c0 3.328 2.816 6.144 6.144 6.144h107.216c2-3.216 4.32-6.224 6.528-9.28-10.704-14.464-18.784-30.976-23.648-48.768h-19.52c-10.304 0-18.688-8.384-18.688-18.704v-103.008c0-10.304 8.384-18.688 18.688-18.688h321.408c10.32 0 18.704 8.384 18.704 18.688v103.008c0 10.32-8.384 18.704-18.704 18.704h-19.504c-4.864 17.824-12.96 34.336-23.68 48.816 2.24 3.040 4.56 6.016 6.576 9.232h107.216c3.328 0 6.144-2.816 6.144-6.144v-711.808zM495.744 461.216h-144.448c-10.304 0-18.688-8.384-18.688-18.688v-167.92c0-2.256 1.808-4.064 4.064-4.064h159.072c2.256 0 4.080 1.808 4.080 4.064v182.544c0 2.256-1.824 4.064-4.080 4.064zM455.824 356.24h-28.576c-0.768 0-1.392-0.608-1.392-1.376v-28.576c0-5.312-4.336-9.664-9.648-9.664-5.328 0-9.648 4.336-9.648 9.664v28.576c0 0.768-0.624 1.376-1.376 1.376h-28.592c-5.312 0-9.648 4.336-9.648 9.664 0 5.312 4.336 9.648 9.648 9.648h28.592c0.752 0 1.376 0.608 1.376 1.376v28.576c0 5.328 4.32 9.664 9.648 9.664 5.312 0 9.648-4.336 9.648-9.664v-28.576c0-0.768 0.624-1.376 1.392-1.376h28.576c5.312 0 9.648-4.336 9.648-9.648 0-5.344-4.336-9.664-9.648-9.664zM495.744 246.176h-159.072c-2.256 0-4.064-1.808-4.064-4.064v-167.92c0-10.32 8.384-18.688 18.688-18.688h144.448c2.256 0 4.080 1.808 4.080 4.064v182.544c0 2.24-1.824 4.064-4.080 4.064zM430.832 149.856l20.224-20.208c1.808-1.824 2.816-4.256 2.816-6.832s-1.008-5.008-2.816-6.816c-3.648-3.664-10-3.664-13.648 0l-20.224 20.208c-0.272 0.272-0.608 0.4-0.976 0.4s-0.704-0.144-0.992-0.4l-20.208-20.208c-3.648-3.664-10-3.664-13.648 0-1.824 1.808-2.832 4.24-2.832 6.816s1.008 5.008 2.832 6.832l20.208 20.208c0.272 0.256 0.4 0.608 0.4 0.976s-0.144 0.72-0.4 0.992l-20.208 20.208c-1.824 1.824-2.832 4.256-2.832 6.832s1.008 4.992 2.832 6.816c3.648 3.648 10 3.648 13.648 0l20.208-20.208c0.544-0.528 1.424-0.528 1.952 0l20.224 20.208c3.648 3.648 10 3.648 13.648 0 1.808-1.824 2.816-4.24 2.816-6.816s-1.008-5.008-2.816-6.832l-20.224-20.208c-0.512-0.56-0.512-1.44 0.016-1.968zM672.704 461.216h-144.432c-2.256 0-4.064-1.808-4.064-4.064v-397.6c0-2.256 1.808-4.064 4.064-4.064h144.432c10.32 0 18.704 8.368 18.704 18.688v368.352c0 10.304-8.4 18.688-18.704 18.688zM647.408 227.92h-79.2c-5.328 0-9.664 4.336-9.664 9.664 0 5.312 4.336 9.648 9.664 9.648h79.2c5.312 0 9.648-4.336 9.648-9.648-0.016-5.328-4.336-9.664-9.648-9.664zM647.408 269.504h-79.2c-5.328 0-9.664 4.336-9.664 9.648 0 5.328 4.336 9.664 9.664 9.664h79.2c5.312 0 9.648-4.336 9.648-9.664-0.016-5.328-4.336-9.648-9.648-9.648z" />
<glyph unicode="&#xe636;" glyph-name="PRIcons-quick-quote" data-tags="PRIcons_quick-quote" d="M618.288 204.784c-1.888 1.904-4.72 2.544-7.248 1.728-32.016-10.416-65.344-15.696-99.024-15.696-177.008 0-320.96 143.968-320.96 320.96s143.952 320.96 320.944 320.96c176.976 0 320.96-143.984 320.96-320.976 0-36.464-6.176-72.368-18.336-106.736-0.912-2.592-0.256-5.488 1.68-7.424l86.096-86.080c1.616-1.632 3.936-2.336 6.192-2 2.272 0.368 4.208 1.808 5.232 3.872 30.8 62.080 46.4 128.832 46.4 198.352 0.016 247.184-201.072 448.256-448.224 448.256s-448.24-201.072-448.24-448.24c0-247.136 201.072-448.224 448.24-448.224 20.896 0 42.080 1.504 62.928 4.432l129.92-129.888c1.376-1.392 3.2-2.096 5.008-2.096 1.856 0 3.664 0.704 5.056 2.096l79.904 79.904c1.344 1.328 2.080 3.152 2.080 5.024 0 1.888-0.736 3.696-2.080 5.040l-176.528 176.736zM722.624 388.592c21.92 37.344 33.472 79.792 33.472 123.168 0 134.592-109.504 244.096-244.096 244.096s-244.096-109.504-244.096-244.096 109.504-244.096 244.096-244.096c42.096 0 83.456 10.928 119.952 31.616l217.072-216.992c1.408-1.392 3.2-2.096 5.024-2.096 1.84 0 3.648 0.704 5.040 2.096l79.92 79.904c1.328 1.344 2.112 3.152 2.112 5.040 0 1.872-0.784 3.68-2.112 5.024l-216.384 216.336zM625.728 485.488l-68.736 68.768c-2.784 2.784-7.296 2.784-10.080 0l-79.92-79.92c-1.328-1.344-2.080-3.152-2.080-5.024 0-1.888 0.752-3.696 2.080-5.040l67.184-67.168c-7.328-1.424-14.736-2.144-22.192-2.144-64.416 0-116.832 52.416-116.832 116.832s52.4 116.832 116.832 116.832 116.832-52.4 116.832-116.832c0.016-8.8-1.024-17.6-3.088-26.304z" />
<glyph unicode="&#xe637;" glyph-name="PRIcons-remove" data-tags="PRIcons_remove" d="M652.8 669.232l-140.8-140.784-140.784 140.784-80.464-80.448 140.8-140.8-140.8-140.8 80.464-80.432 140.784 140.784 140.8-140.784 80.448 80.432-140.8 140.8 140.8 140.8z" />
<glyph unicode="&#xe638;" glyph-name="PRIcons-tools" data-tags="PRIcons_tools" d="M602.16 363.008c-0.416 0.032-0.848 0.080-1.296 0.144 0.448-0.064 0.864-0.112 1.296-0.144zM225.872 805.584c1.072 0.32 2.176 0.592 3.312 0.832-1.136-0.24-2.24-0.512-3.312-0.832zM220.24 803.472c1.024 0.448 2.064 0.88 3.104 1.264-1.040-0.384-2.080-0.8-3.104-1.264zM231.808 806.928c1.168 0.176 2.384 0.288 3.6 0.384-1.216-0.096-2.416-0.208-3.6-0.384zM239.136 807.552c-0.336 0-0.64-0.048-0.976-0.064 1.984 0.032 4 0.016 6.112-0.192-1.76 0.16-3.472 0.256-5.136 0.256zM621.312 364.448c1.68-0.064 3.344-0.208 4.976-0.432-1.632 0.224-3.296 0.368-4.976 0.432zM634.288 362.288c2.032-0.624 4.032-1.376 6-2.288-1.952 0.912-3.952 1.664-6 2.288zM618.864 364.576c-1.36 0-2.784-0.144-4.192-0.24 1.712 0.112 3.408 0.224 5.056 0.192-0.288 0.016-0.576 0.048-0.864 0.048zM628.096 363.744c1.68-0.304 3.344-0.672 4.992-1.136-1.648 0.464-3.312 0.848-4.992 1.136zM593.808 365.632c0.352-0.208 0.736-0.368 1.12-0.56-0.368 0.176-0.768 0.336-1.12 0.56zM597.2 364.064c0.448-0.16 0.88-0.288 1.344-0.416-0.448 0.144-0.896 0.272-1.344 0.416zM605.2 363.12c2.496 0.512 4.944 0.864 7.328 1.104-2.384-0.24-4.832-0.592-7.328-1.104zM647.584 355.888c1.392-0.912 2.768-1.92 4.112-2.992-1.344 1.088-2.704 2.080-4.112 2.992zM641.152 359.568c1.648-0.784 3.248-1.664 4.832-2.64-1.584 0.976-3.184 1.856-4.832 2.64zM653.2 351.728c1.792-1.504 3.568-3.088 5.296-4.864-1.744 1.776-3.504 3.36-5.296 4.864zM248.384 807.424c0.752 0.064 1.52 0.128 2.24 0.288-0.72-0.16-1.488-0.208-2.24-0.288zM259.328 812.672c-0.416-0.448-0.912-0.736-1.344-1.136 0.432 0.384 0.928 0.688 1.344 1.136zM253.456 808.688c0.624 0.256 1.28 0.464 1.872 0.8-0.592-0.336-1.248-0.544-1.872-0.8zM371.12 372.832c-8.944 8.944-17.904 17.84-26.848 26.784-137.28-137.248-265.968-265.856-274.32-274.224-14.672-14.704-23.696-37.552-15.584-60.176 16.8-47.296 49.344-79.808 97.424-95.216 21.328-6.832 42.080 1.168 56.384 15.408 7.84 7.92 137.808 138.080 273.392 273.824 0.176 0.976 0.24 1.936 0.448 2.928-37.008 36.832-73.952 73.744-110.896 110.672zM760.128 537.856c66.416-18.128 140.384-1.104 192.528 51.040 52.336 52.352 69.216 126.72 50.8 193.328l-102.432-102.384c-27.792-27.856-72.88-27.856-100.72 0l-36.992 37.008c-27.888 27.808-27.888 72.928 0 100.784l102.384 102.384c-66.64 18.48-141.008 1.552-193.328-50.816-52.16-52.144-69.168-126.096-51.088-192.496-39.44-39.504-94.512-94.608-154.672-154.768 45.792-45.84 91.664-91.616 137.632-137.296 1.024 0.176 2.016 0.256 3.040 0.4 63.264 63.264 118.944 118.96 152.848 152.816zM912.192 93.328c-47.888 47.088-95.136 94.848-142.64 142.352-37.088 37.008-74.384 73.84-111.056 111.184-1.728 1.76-3.504 3.36-5.296 4.864-0.48 0.416-0.992 0.784-1.488 1.184-1.344 1.072-2.72 2.064-4.112 2.992-0.528 0.352-1.056 0.704-1.6 1.040-1.584 0.976-3.2 1.856-4.832 2.64-0.288 0.144-0.576 0.32-0.864 0.448-1.968 0.896-3.968 1.664-6 2.288-0.4 0.128-0.8 0.208-1.2 0.32-1.648 0.464-3.312 0.848-4.992 1.136-0.608 0.096-1.2 0.192-1.808 0.272-1.632 0.224-3.296 0.368-4.976 0.432-0.512 0.016-1.040 0.080-1.568 0.080-1.648 0.016-3.344-0.080-5.056-0.192-0.704-0.048-1.408-0.048-2.128-0.112-2.384-0.24-4.832-0.608-7.328-1.104-0.672-0.128-1.376-0.208-2.128-0.208-0.304 0-0.608 0.080-0.912 0.096-0.432 0.032-0.848 0.080-1.296 0.144-0.768 0.112-1.536 0.288-2.304 0.496-0.464 0.128-0.896 0.256-1.344 0.416-0.8 0.288-1.536 0.64-2.272 0.992-0.384 0.192-0.768 0.352-1.12 0.56-1.040 0.608-2 1.296-2.736 2.032-0.192 0.192-0.368 0.368-0.576 0.576-46.4 46.080-92.72 92.304-138.976 138.608-28.944 28.976-57.904 57.952-86.736 87.040-16.24 16.4-28.88 35.664-30.288 59.904-1.552 25.504 9.248 45.824 30.464 58.8 13.968 8.48 29.712 16.016 45.504 18.704 21.040 3.568 37.216 13.296 51.792 27.28 13.84 13.296 27.248 27.008 40.784 40.608 14.832 14.96 15.712 23.088 1.040 38.608-24.368 25.68-49.632 50.592-74.672 75.632-13.088 13.024-26 26.16-39.936 38.208-1.632 1.408-3.168 2.64-4.64 3.696-0.656 0.48-1.264 0.784-1.888 1.184-0.768 0.496-1.584 1.056-2.32 1.44-0.704 0.352-1.344 0.544-2.016 0.8-0.64 0.256-1.28 0.592-1.92 0.752-0.64 0.176-1.28 0.192-1.904 0.272-0.672 0.064-1.28 0.208-1.888 0.208-0.784 0-1.568-0.192-2.336-0.336-0.48-0.096-0.96-0.096-1.44-0.24-0.816-0.256-1.664-0.688-2.496-1.088-0.464-0.224-0.912-0.352-1.376-0.624-0.88-0.496-1.792-1.184-2.688-1.84-0.48-0.336-0.928-0.592-1.408-0.992-1.408-1.12-2.88-2.416-4.432-3.904-16-15.296-32.368-30.416-46.464-47.376-9.632-11.632-15.888-26.112-23.216-39.52-8.416-15.488-16.416-31.216-24.544-46.848-0.928-1.76-2.016-3.28-3.216-4.576-0.416-0.448-0.912-0.736-1.344-1.136-0.848-0.752-1.696-1.488-2.656-2.032-0.592-0.336-1.248-0.544-1.872-0.8-0.912-0.384-1.84-0.752-2.832-0.976-0.72-0.16-1.472-0.208-2.24-0.288-0.64-0.048-1.216-0.24-1.872-0.24-0.72 0-1.472 0.016-2.24 0.096-2.112 0.208-4.128 0.224-6.112 0.192-0.944-0.016-1.824-0.096-2.736-0.176-1.216-0.096-2.432-0.208-3.6-0.384-0.896-0.144-1.76-0.32-2.64-0.512-1.12-0.24-2.24-0.512-3.312-0.832-0.848-0.256-1.696-0.528-2.528-0.832-1.040-0.384-2.080-0.816-3.104-1.264-0.8-0.352-1.6-0.72-2.368-1.12-1.008-0.528-2.032-1.104-3.024-1.696-0.72-0.432-1.456-0.864-2.192-1.328-1.024-0.672-2.016-1.424-3.040-2.176-0.656-0.496-1.312-0.944-1.968-1.456-1.088-0.896-2.192-1.84-3.264-2.816-0.528-0.464-1.056-0.896-1.568-1.36-1.6-1.488-3.184-3.040-4.752-4.672-40.96-42.464-82.88-84.096-125.088-125.328-33.6-32.752-50.496-73.28-56.176-118.576-10.992-87.136 5.584-171.008 32.096-253.536 0.208-0.672 0.912-1.168 2-2.544 20.368 19.84 40.832 39.328 60.752 59.424 2.224 2.256 2.416 7.424 2.224 11.168-1.712 40.432 0.752 80.384 13.872 119.104 10.848 32.176 28.176 59.776 56.544 79.776 1.152 0.816 2.288 1.52 3.408 2.144 0.272 0.16 0.544 0.256 0.816 0.384 0.848 0.432 1.68 0.848 2.512 1.184 0.384 0.144 0.752 0.24 1.152 0.352 0.688 0.24 1.408 0.464 2.112 0.624 0.448 0.096 0.88 0.128 1.328 0.192 0.656 0.080 1.28 0.176 1.92 0.176 0.128 0 0.272 0.048 0.384 0.048 0.448 0 0.864-0.080 1.312-0.112 0.432-0.032 0.864-0.048 1.312-0.112 0.592-0.096 1.184-0.272 1.776-0.432 0.416-0.112 0.816-0.192 1.232-0.336 0.64-0.224 1.296-0.544 1.936-0.848 0.368-0.176 0.736-0.304 1.088-0.496 1.008-0.544 2.016-1.2 3.024-1.952 11.504-8.592 23.632-16.656 33.76-26.704 38.752-38.496 77.408-77.104 116.064-115.728 46.176-46.144 92.336-92.32 138.624-138.384 0.128-0.128 0.176-0.24 0.304-0.352 5.072-5.232 6.544-10.016 4.864-17.056-4.704-19.552 0.96-35.92 15.296-50.224 84.768-84.384 169.44-168.8 253.536-253.776 2-2.016 4.032-3.824 6.080-5.536 0.496-0.4 0.976-0.784 1.472-1.168 1.872-1.472 3.76-2.832 5.68-4.032 0.208-0.144 0.416-0.304 0.64-0.432 2.192-1.328 4.4-2.48 6.656-3.472 0.352-0.16 0.736-0.304 1.12-0.448 1.968-0.816 3.968-1.52 6-2.080 0.352-0.096 0.72-0.208 1.072-0.304 2.352-0.592 4.72-1.024 7.12-1.264 0.208-0.016 0.416-0.016 0.624-0.032 1.888-0.16 3.808-0.144 5.728-0.080 1.904 0.064 3.824 0.272 5.76 0.544 1.072 0.144 2.112 0.24 3.2 0.448 3.024 0.592 6.096 1.376 9.232 2.496 47.296 16.8 79.84 49.376 95.264 97.424 6.768 21.296 0.944 40.096-15.52 56.336zM651.696 352.912c0.496-0.384 1.008-0.768 1.488-1.184-0.48 0.416-0.976 0.784-1.488 1.184zM248.384 807.424c-1.328-0.128-2.672-0.272-4.112-0.128 0.752-0.080 1.504-0.096 2.24-0.096 0.656 0 1.232 0.176 1.872 0.224zM250.624 807.712c0.992 0.224 1.92 0.592 2.832 0.976-0.912-0.384-1.84-0.752-2.832-0.976zM646 356.928c0.544-0.336 1.056-0.672 1.6-1.040-0.544 0.368-1.072 0.72-1.6 1.040zM598.56 363.664c0.768-0.224 1.536-0.384 2.304-0.496-0.784 0.096-1.536 0.272-2.304 0.496zM594.944 365.056c0.736-0.352 1.456-0.704 2.272-0.992-0.8 0.288-1.552 0.64-2.272 0.992zM235.408 807.312c0.912 0.064 1.808 0.144 2.736 0.176-0.928-0.032-1.824-0.112-2.736-0.176zM591.072 367.664c0.752-0.752 1.696-1.424 2.736-2.032-1.040 0.608-1.984 1.28-2.736 2.032zM640.288 360c0.288-0.128 0.576-0.304 0.864-0.448-0.288 0.16-0.576 0.336-0.864 0.448zM626.288 364.016c0.608-0.080 1.216-0.176 1.808-0.272-0.608 0.096-1.2 0.192-1.808 0.272zM633.088 362.608c0.4-0.112 0.8-0.192 1.2-0.32-0.4 0.128-0.8 0.208-1.2 0.32zM612.544 364.224c0.72 0.064 1.424 0.064 2.128 0.112-0.704-0.048-1.408-0.032-2.128-0.112zM619.728 364.544c0.528 0 1.056-0.064 1.568-0.080-0.512 0.016-1.024 0.064-1.568 0.080zM217.872 802.352c0.768 0.4 1.568 0.752 2.368 1.12-0.8-0.352-1.584-0.72-2.368-1.12zM229.184 806.416c0.864 0.192 1.744 0.368 2.64 0.512-0.896-0.144-1.776-0.32-2.64-0.512zM262.528 817.232c-0.928-1.76-2.016-3.28-3.216-4.576 1.2 1.312 2.288 2.816 3.216 4.576zM255.328 809.488c0.96 0.544 1.808 1.296 2.656 2.032-0.864-0.736-1.712-1.488-2.656-2.032zM223.344 804.736c0.832 0.304 1.68 0.576 2.528 0.832-0.848-0.24-1.696-0.528-2.528-0.832zM605.2 363.12c-0.928-0.192-1.984-0.176-3.040-0.112 0.304-0.016 0.624-0.096 0.912-0.096 0.752 0 1.456 0.080 2.128 0.208z" />
<glyph unicode="&#xe63a;" glyph-name="PRIcons-health" data-tags="PRIcons_health" d="M604.288 227.888l-74.288 290.336-80.336-256.592-79.584 198.944-53.328-108.576h-149.92c73.168-95.696 345.168-330.672 345.168-330.672s211.84 183.632 297.408 279.088h214.592v51.584h-312.144l-107.568-124.112zM374.88 586.464l68.912-172.272 91.168 291.232 94.688-370.112 58.832 67.888h209.392c52.336 71.52 81.6 140.944 81.6 216.336 0 143.872-112.208 255.12-257.104 255.12-79.456 0-158.944-37.136-210.336-97.392-51.408 60.256-130.896 97.392-210.336 97.392-144.912 0-257.104-111.248-257.104-255.072 0-57.168 17.056-111.008 48.096-164.896h-92.688v-51.472h284.864l90.016 183.248z" />
<glyph unicode="&#xe63b;" glyph-name="PRIcons-size" data-tags="PRIcons_size" d="M382.080 100l259.328 696h123.264l259.328-696h-120.416l-69.216 192.96h-265.024l-67.792-192.96h-119.472zM602.528 390.144h201.952l-64.944 188.704c-4.736 12.64-11.312 32.544-19.68 59.728s-14.144 47.088-17.296 59.728c-8.528-38.88-21.008-81.376-37.456-127.536l-62.576-180.624zM275.536 564h-119.952l-155.584-464h97.984l33.536 110.624h168.704l33.552-110.624h7.216l47.664 127.936-113.12 336.064zM156.224 292.176c32.912 106.4 52.832 173.104 59.808 200.080 1.68-7.584 4.48-17.904 8.368-30.992 3.904-13.056 21.36-69.424 52.368-169.088h-120.544z" />
<glyph unicode="&#xe63c;" glyph-name="PRIcons-user-sign" data-tags="PRIcons_user-sign" d="M512 960c-282.752 0-512-229.216-512-512 0-134.56 51.984-256.912 136.864-348.288 16.064-17.312 33.28-33.52 51.6-48.48 88.192-72 200.8-115.232 323.536-115.232 121.488 0 233.008 42.384 320.8 113.072 18.848 15.168 36.56 31.648 53.072 49.296 85.616 91.52 138.128 214.4 138.128 349.632 0 282.784-229.216 512-512 512zM512.928-21.312c-0.816 0-1.632 0.016-2.432 0.016-156.304 0.496-294.784 77.84-379.76 196.096-0.016 1.952-0.096 3.904-0.064 5.872 0.336 40.704 21.904 72.16 57.504 89.872 33.248 16.496 69.008 28.128 104.128 40.368 30.96 10.832 62.624 19.408 93.824 29.168 7.296 2.336 14.624 4.912 21.328 8.416 14.336 7.408 15.632 19.92 5.92 32.912-16.208 21.552-31.248 43.968-46.88 65.968-2.304 3.296-4.368 7.536-7.664 9.12-35.584 17.84-42.752 49.408-42.448 85.104 0.048 7.424-1.632 15.168-3.696 22.352-26.256 89.536 8.4 183.92 85.824 233.808 12.496 8.016 25.008 13.328 40.304 10.768 3.584-0.56 9.824 1.568 11.328 4.304 7.248 13.28 19.632 15.776 32.448 17.312 117.2 14.592 215.92-58.048 237.136-174.608 3.776-27.296-3.44-73.472-6.72-94.128-1.92-12.496-2.256-25.248-3.504-37.92-2.832-28.416-12.832-52.336-40.080-66.336-4.848-2.496-7.872-8.784-11.344-13.584-15.664-21.296-30.256-43.504-47.12-63.84-12.624-15.2-12.624-25.008 6.496-32.16 27.216-10.256 55.424-17.92 83.040-27.328 40.544-13.968 82.080-26 121.248-43.216 46.416-20.4 69.776-55.984 71.392-102.4-85.088-118.304-223.744-195.632-380.208-195.936z" />
<glyph unicode="&#xe63d;" glyph-name="PRIcons-legal" data-tags="PRIcons_legal" d="M694.672 391.472c0-85.088 73.888-154.32 164.688-154.32s164.64 69.2 164.64 154.32l-12.768 12.784-130.816 261.696c4.832 3.936 9.040 8.592 11.76 14.24 3.28 5.52 4.192 10.432 3.84 14.592 0.096 1.2 0.128 2.432 0.128 3.68-0.224 22.736-18.88 41.232-42.112 41.232-11.104-0.128-21.536-4.576-29.312-12.528-2.704-2.784-4.96-5.84-6.8-9.136-1.344 1.28-2.704 2.512-4.016 3.728l-1.376 1.264c-10.464 9.664-19.664 18.608-28.080 26.816-35.392 34.512-60.976 59.488-112.192 66.272-6.88 0.928-13.808 1.392-20.64 1.392-31.168 0-54.944-9.456-74.032-17.072-10.16-4.048-18.944-7.552-25.36-8.080-4.016-0.336-7.632-0.64-10.832-0.896-0.336 0.672-0.704 1.312-1.104 1.936 1.728 5.968 2.144 13.056 0.256 21.008-2.192 8.88-9.392 47.6-11.968 61.76l-41.936-0.416c-2.288-14.192-8.64-52.912-10.64-62.016-1.696-7.92-1.104-15.008 0.8-20.992-0.384-0.656-0.752-1.328-1.104-2.016-3.2 0.192-6.8 0.384-10.816 0.672-6.416 0.352-15.312 3.68-25.616 7.504-18.432 6.896-41.44 15.456-70.912 15.456-7.936 0-16.016-0.656-24.032-1.888-51.008-7.968-76-33.456-110.592-68.704-8.24-8.384-17.248-17.6-27.584-27.52-1.872-1.824-3.664-3.52-5.344-5.104-7.28 12.432-20.864 20.864-36.512 20.864-11.104-0.144-21.52-4.592-29.28-12.576-7.776-7.968-11.984-18.448-11.856-29.584 0.016-1.168 0.080-2.336 0.176-3.504-0.256-4.208 0.736-9.168 4.24-14.672 2.736-5.52 7.008-10.048 11.856-13.856l-126.752-253.648-12.672-12.672c0-85.104 73.84-154.32 164.656-154.32s164.704 69.2 164.704 154.32l-12.72 12.688-122.48 244.896c24.384 7.76 49.024 26.944 73.008 45.744 7.6 5.968 14.96 11.728 21.856 16.736 20.576 14.864 31.664 16.848 39.84 16.848 10.816 0 22.896-4.048 41.424-11.552 31.040-12.528 57.008-14.384 69.744-14.384 4.464 0 7.664 0.224 9.36 0.368l21.984 0.24c-2.848-4.816-5.088-10.976-6.352-18.8-4.528-5.024-6.016-10.448-6.512-13.28-1.408-8.336 1.328-15.328 4.688-20.416l2.928-259.984c-8.032-7.792-9.472-16.416-9.472-21.472-0.016-5.392 1.504-10.336 3.888-14.72l-2.688-7.888c-0.080-0.928-8.8-97.76-14.336-141.264-4.784-36.736-2.848-66.384 0.464-77.056h-248.832l-19.568-7.616-32.672-72.848 19.552-26.16h712.416l10.24-1.28v-0.448l14.304 29.632-35.12 71.088-22.048 7.632h-254.784c3.12 31.984 4.96 40.88-0.752 78.656-6.64 43.408-17.312 137.312-17.408 138.256l-2.896 9.216c2.336 4.4 3.696 10.064 3.568 15.472-0.128 5.040-1.76 13.904-9.936 21.52l-2.928 260.192c3.248 5.136 5.808 12.256 4.24 20.512-0.56 2.864-2.16 8.272-6.816 13.2-1.456 7.808-3.856 13.968-6.832 18.72l22.016 0.256c6.976-0.496 39.024-1.28 78.864 15.776 18.768 8.112 31.040 12.496 42.016 12.496 7.952 0 18.832-1.888 39.296-15.952 7.072-4.896 14.608-10.544 22.4-16.352 26.48-19.808 53.712-40.064 80.24-45.632l-125.2-250.336-12.672-12.72zM959.44 405.344h-200.24l100.16 200.256 100.080-200.256zM164.656 605.616l100.144-200.272h-200.288l100.144 200.272z" />
<glyph unicode="&#xe63e;" glyph-name="PRIcons-legal-alt" data-tags="PRIcons_legal-alt" d="M23.136 17.632c-12.72 0-23.136 10.4-23.136 23.12v47.312c0 12.72 10.288 24.832 22.816 26.912 0 0 117.424 19.36 254.784 19.36 137.312 0 254.784-19.408 254.784-19.408 12.544-2.080 22.832-14.192 22.832-26.912v-47.264c0-12.72-10.416-23.12-23.136-23.12h-508.944zM27.808 450.608l-24.128-41.856c-6.528-11.28-4.144-27.856 5.248-36.832 0 0 55.040-52.608 137.264-100.096 82.224-47.456 155.264-68.8 155.264-68.8 12.544-3.664 28.016 2.608 34.528 13.84l24.192 41.872c6.528 11.264 2.64 25.792-8.64 32.288l-291.424 168.24c-11.264 6.512-25.76 2.592-32.304-8.656zM272.976 829.216c-12.528 3.648-28.032-2.608-34.528-13.856l-24.144-41.824c-6.544-11.28-2.624-25.808 8.656-32.304l291.36-168.224c11.248-6.528 25.776-2.64 32.288 8.64l24.176 41.84c6.528 11.264 4.144 27.824-5.264 36.832 0 0-55.056 52.592-137.264 100.080-82.224 47.456-155.28 68.816-155.28 68.816zM333.152 346.032l44.352 76.832 149.152-86.096c0.048-10.128 5.552-21.792 15.088-29.824 0 0 92.528-74.256 204.64-139.008 112.144-64.72 208.512-99.52 208.512-99.52 16.496-5.968 35.248-1.6 41.76 9.648l24.624 42.656c6.528 11.28 0.88 29.728-12.496 41.008 0 0-78.352 66.096-190.464 130.832-112.144 64.736-222.672 107.696-222.672 107.696-11.776 4.256-24.592 3.184-33.392-1.808l-149.152 86.112 44.384 76.816-216.192 124.816-124.352-215.328 216.208-124.832z" />
<glyph unicode="&#xe63f;" glyph-name="PRIcons-newspaper" data-tags="PRIcons_newspaper" d="M150.64 571.552h346.272v-101.616h-346.272v101.616zM0 913.792v-707.328c0-135.456 16.896-224.24 242.496-224.24h532.128c198.768 0 249.216 20.336 249.376 206.992v724.576h-1024zM949.792 189.232c-0.112-130.336-0.112-132.816-175.168-132.816h-532.128c-168.304 0-168.304 37.808-168.304 150.032v633.136h875.6v-650.352zM575.376 577.568h296.512v-452.784h-296.512v452.784zM150.64 783.264h733.264v-141.568h-733.264v141.568zM150.64 401.264h346.272v-101.616h-346.272v101.616zM150.64 237.68h346.272v-101.616h-346.272v101.616z" />
<glyph unicode="&#xe640;" glyph-name="PRIcons-decrease" data-tags="PRIcons_decrease" d="M760.224 373.904l-181.152-181.136v767.232h-134.128v-767.232l-181.168 181.136-94.832-94.848 343.056-343.056 343.056 343.056z" />
<glyph unicode="&#xe641;" glyph-name="PRIcons-decrease-condensed" data-tags="PRIcons_decrease-condensed" d="M791.248 329.056l-239.008-239.008v869.952h-80.496v-869.952l-238.992 239.008-56.912-56.88 336.16-336.176 336.16 336.176z" />
<glyph unicode="&#xe642;" glyph-name="PRIcons-training1" data-tags="PRIcons_training" d="M1024 401.072v69.664l-75.808 18.56c-2.656 21.872-6.944 43.232-12.704 64l63.824 46.016-26.144 64.576-78.864-11.488c-10.912 19.168-23.2 37.424-36.752 54.672l41.040 67.648-49.264 49.264-67.872-41.168c-16.912 13.168-34.784 25.12-53.52 35.744l12.016 78.56-64.352 26.624-46.96-64.112c-20.528 5.664-41.648 9.84-63.264 12.464l-18.56 75.808h-69.664l-18.56-75.808c-21.856-2.656-43.216-6.928-64-12.672l-46.016 63.808-64.56-26.144 11.472-78.864c-19.152-10.896-37.424-23.2-54.672-36.752l-67.632 41.024-49.264-49.264 41.152-67.856c-13.152-16.912-25.104-34.784-35.728-53.536l-78.56 12.048-26.608-64.368 64.112-46.976c-5.664-20.528-9.856-41.648-12.48-63.264l-75.808-18.544v-69.664l75.808-18.56c2.656-21.856 6.912-43.232 12.672-63.984l-63.808-46.016 26.144-64.576 78.864 11.488c10.912-19.168 23.2-37.44 36.752-54.672l-41.024-67.632 49.264-49.264 67.872 41.168c16.912-13.168 34.768-25.12 53.52-35.744l-12.016-78.56 64.352-26.64 46.96 64.096c13.392-3.68 27.12-6.512 40.992-8.928l-17.216 118.448c-24.8 5.616-43.504 27.872-43.504 54.336v251.584c0 30.656 26.752 43.456 55.712 55.728 0 0 48.384 22.32 80.672 22.32 32.048 0 80.672-22.32 80.672-22.32 26.752-10.96 55.712-25.072 55.712-55.728v-251.568c0-26.448-18.704-48.72-43.52-54.336l-17.2-118.448c14.112 2.464 28.080 5.344 41.696 9.12l46.032-63.808 64.56 26.144-11.472 78.864c19.152 10.896 37.424 23.2 54.672 36.752l67.632-41.024 49.264 49.264-41.152 67.856c13.152 16.912 25.104 34.784 35.728 53.536l78.56-12.048 26.64 64.368-64.112 46.976c5.664 20.528 9.856 41.648 12.48 63.248l75.792 18.56zM512.016 529.52c-53.376 0-96.64 43.28-96.64 96.64 0 53.376 43.264 96.656 96.64 96.656s96.672-43.28 96.672-96.656c0-53.376-43.296-96.64-96.672-96.64z" />
<glyph unicode="&#xe643;" glyph-name="PRIcons-close" data-tags="PRIcons_remove-light" d="M585.024 448l310.976 310.992-72.976 72.976-310.992-310.976-311.024 311.008-72.976-73.008 310.992-310.992-311.024-311.024 72.976-72.976 311.056 311.024 310.992-310.96 72.976 72.944z" />
<glyph unicode="&#xe644;" glyph-name="PRIcons-placeholder" data-tags="PRIcons_placeholder" d="M0 960v-1024h1024v1024h-1024zM41.088 6.144v883.712l441.856-441.856-441.856-441.856zM512 477.040l-441.856 441.872h883.712l-441.856-441.872zM953.856-22.912h-883.712l441.856 441.872 441.856-441.872zM541.056 448l441.856 441.856v-883.712l-441.856 441.856z" />
<glyph unicode="&#xe645;" glyph-name="PRIcons-post-it" data-tags="PRIcons_post-it" d="M761.168 636.64v-156.368c0-148.992-72.48-253.36-75.568-257.744l-19.088-27.024h-277.088c-8.288-113.776-62.72-192.288-62.72-192.288h633.424c0 0 63.872 90.48 63.872 220.896s0 412.528 0 412.528h-262.832zM633.424 259.36c0 0 63.872 90.48 63.872 220.896 0 41.44 0 98.208 0 156.368 0 124.864 0 256.16 0 256.16h-633.424c0 0 0-283.44 0-412.528s-63.872-220.896-63.872-220.896h633.424z" />
<glyph unicode="&#xe646;" glyph-name="PRIcons-increase" data-tags="PRIcons_increase" d="M263.792 522.096l181.152 181.136v-767.232h134.128v767.232l181.152-181.136 94.832 94.848-343.056 343.056-343.056-343.056z" />
<glyph unicode="&#xe647;" glyph-name="PRIcons-increase-condensed" data-tags="PRIcons_increase-condensed" d="M232.752 566.944l238.992 239.008v-869.952h80.496v869.952l239.008-239.008 56.912 56.88-336.16 336.176-336.16-336.176z" />
<glyph unicode="&#xe651;" glyph-name="PRIcons-reply" data-tags="PRIcons_reply" d="M1019.312 387.52c-12.512 86.72-41.824 163.952-110.384 222.016-56.672 47.968-123.904 74.16-195.472 90.288-75.248 16.992-151.776 21.84-228.688 21.728-38.928-0.096-77.92 0-119.312 0 0 8.56 0 15.648 0 22.816-0.096 40.848 0.096 81.68-0.304 122.56-0.096 16.032-7.824 27.872-22.768 34.368-14.752 6.416-27.408 1.584-38.8-7.984-4.256-3.504-8.016-7.472-11.888-11.376-90.16-90.096-180.304-180.224-270.4-270.32-28.32-28.368-28.4-44.064-0.208-72.288 90.592-90.544 181.184-181.072 271.68-271.616 3.456-3.472 6.816-7.088 10.48-10.208 11.488-9.408 23.968-14.656 38.816-8.224 14.96 6.496 22.768 18.080 22.976 34.208 0.4 23.168 0.304 46.336 0.4 69.504 0 24.896 0 49.744 0 76.128 49.696 0 97.328 2.336 144.544-0.592 61.888-3.808 124.448-6.688 184.944-19.056 104.496-21.328 172.864-84.544 196.128-191.968 12.272-56.672 12.672-113.648 8.816-170.976-0.784-12.176-3.36-24.4-2.176-36.384 0.592-6.592 6.032-16.192 11.376-18.016 5.44-1.728 14.608 3.072 20.192 7.488 4.848 3.856 7.52 10.848 10.304 16.88 9.952 22.288 19.744 44.544 29.2 66.976 41.232 97.264 66.144 196.832 50.544 304.048z" />
<glyph unicode="&#xe807;" glyph-name="PRIcons-health-alt" data-tags="PRIcons_health-alt" d="M469.333 801.173v-341.931c3.563-0.683 7.040-1.344 10.667-2.048l29.952-5.717c0.853-0.171 1.685-0.363 2.517-0.512 14.059-2.795 28.053-5.675 42.197-8.875v359.083c25.387 14.784 42.667 42.005 42.667 73.493 0 47.125-38.229 85.333-85.333 85.333-47.147 0-85.333-38.208-85.333-85.333 0-31.509 17.259-58.731 42.667-73.493zM661.333 874.667c0-50.709-25.344-95.467-64-122.432v-90.901c106.667 0 276.672 0 320 149.333h75.392c6.336 19.072 9.941 40.171 9.941 64h-341.333zM512.427 249.579c8.917-3.84 17.771-7.68 26.496-11.627 0.469-0.213 0.96-0.427 1.429-0.619 4.693-2.133 9.536-4.544 14.315-6.763v100.032c-14.144 3.712-28.437 6.976-42.24 9.877-8 1.664-15.893 3.264-23.317 4.757-6.656 1.323-13.205 2.539-19.776 3.797v-80.277c0.128-0.043 0.277-0.128 0.405-0.192 13.525-6.357 27.264-12.288 40.896-18.197 0.597-0.235 1.173-0.512 1.792-0.789zM512.427 124.181c-5.952 2.731-12.309 5.653-19.307 8.789-2.027 0.917-4.053 1.899-6.101 2.816-5.888 2.688-11.797 5.461-17.685 8.192v-165.312l42.667-42.667 42.667 42.667v124.971c-0.683 0.384-1.387 0.789-1.963 1.088-10.88 5.611-23.744 11.84-40.277 19.456zM416.661 169.856c-1.813 0.981-3.776 2.112-5.632 3.115-14.464-10.389-28.011-22.592-38.549-40.469-5.739-10.005-8.533-18.752-9.408-28.971-0.256-1.984-0.405-4.267-0.405-7.061 0-41.472 28.651-75.115 64-75.115v56.213c0.021 0.021 0.021 0.085 0.043 0.107-0.021 15.552 9.579 27.819 21.291 36.864v39.637c-9.387 4.565-18.773 9.088-28.501 14.187l-2.837 1.493zM682.731 363.52c-3.584 3.733-7.232 6.955-10.88 9.941-8.128 6.656-16.384 11.712-24.512 15.915-3.861 2.005-7.701 3.819-11.477 5.547-15.403 6.912-30.379 11.733-45.12 16.085-4.992 1.408-9.792 2.411-14.741 3.712-7.147 1.856-14.315 3.755-21.333 5.376-14.379 3.307-28.459 6.336-42.24 9.088-2.176 0.448-4.459 0.96-6.613 1.365-12.437 2.389-24.576 4.693-36.459 6.955-3.328 0.619-6.549 1.28-9.835 1.899-3.925 0.747-7.659 1.472-11.499 2.219-31.552 6.101-60.864 12.117-85.995 19.093-19.861 5.547-37.269 11.413-50.795 17.835-13.568 6.336-22.699 13.184-27.371 18.347-4.459 5.077-5.547 8.704-5.973 10.603 0 0.149-0.085 0.256-0.256 0.363-0.064 1.259-0.128 2.325-0.192 3.179s-0.085 1.493-0.107 1.941v41.685h43.584c4.309-26.24 24.533-42.667 52.416-42.667 31.509 0 53.333 0 53.333 0s0 21.781 0 53.333-21.291 53.333-53.333 53.333c-12.565 0-77.397 0-95.339 0-42.667 0-64.661-21.995-64.661-64v-42.667h0.128c0-0.576-0.107-1.131-0.085-1.707 0 0 0.043-0.917 0.128-2.667 0.043-0.917 0.085-2.048 0.171-3.371 0.341-2.475 0.747-5.333 1.195-8.576 1.963-11.477 8.213-27.285 20.715-41.472 12.331-13.952 29.013-25.237 47.488-34.197 18.56-8.939 39.189-16.213 61.461-22.357 1.301-0.363 2.709-0.64 4.011-1.003 9.408-2.539 19.029-4.971 28.928-7.275 22.421-5.163 46.101-9.856 70.507-14.528 7.040-1.344 14.187-2.752 21.333-4.096 7.936-1.515 15.808-3.029 23.851-4.587 6.379-1.259 12.821-2.688 19.221-4.011 14.187-2.944 28.245-6.208 42.24-9.749 2.667-0.683 5.333-1.323 7.979-2.027 3.264-0.875 6.635-1.557 9.835-2.475 1.195-0.363 2.325-0.747 3.52-1.131 11.563-3.477 22.933-7.275 32.981-11.84 11.115-4.864 20.8-11.051 25.664-16.299 4.565-5.995 4.736-5.739 3.989-12.949-0.469-3.2-4.608-11.179-12.075-18.197-12.779-12.053-31.339-22.848-50.56-32.448v-34.667c11.221-5.675 22.379-11.733 33.024-18.453 1.984-1.28 3.968-2.688 5.952-4.011 19.307 10.901 39.147 23.573 58.475 42.603 12.693 13.099 26.091 29.995 30.4 55.723 1.707 10.496 1.429 23.915-2.603 36.267-3.883 12.437-10.965 23.019-18.475 31.019zM746.837 618.667c-17.92 0-82.773 0-95.339 0-32.043 0-53.333-21.781-53.333-53.333s0-53.333 0-53.333 21.824 0 53.333 0c27.883 0 48.107 16.427 52.416 42.667h43.584v-41.685c-0.021-0.448-0.064-1.088-0.107-1.941s-0.107-1.941-0.192-3.179c-0.149-0.107-0.256-0.213-0.256-0.363-0.427-1.899-1.515-5.525-5.973-10.603-4.672-5.163-13.781-12.011-27.371-18.347-13.525-6.421-30.933-12.288-50.795-17.835-25.344-7.019-54.933-13.077-86.827-19.243v-4.757c6.933-1.749 13.696-3.221 20.779-5.248 14.848-4.373 30.912-9.472 47.957-17.152 10.24-4.693 20.885-10.283 31.531-17.685 1.323 0.363 2.731 0.661 4.032 1.024 22.272 6.144 42.923 13.419 61.461 22.357 18.475 8.96 35.157 20.224 47.488 34.197 12.501 14.187 18.752 29.995 20.715 41.472 0.448 3.243 0.853 6.101 1.195 8.576 0.064 1.344 0.128 2.453 0.171 3.371 0.085 1.749 0.128 2.667 0.128 2.667 0.021 0.576-0.085 1.131-0.085 1.707h0.128v42.667c0.021 42.005-21.973 64-64.64 64zM652.352 132.48c-10.539 17.899-24.085 30.080-38.549 40.469-5.333 3.861-10.795 7.509-16.299 11.029-1.301 0.811-2.731 1.451-4.032 2.24-5.653 3.456-11.563 6.613-17.472 9.771-6.997 3.755-14.059 7.509-21.333 10.987-7.659 3.691-15.253 7.36-23.125 10.944-6.251 2.837-12.736 5.589-19.115 8.363-8.832 3.861-17.6 7.787-26.496 11.691-5.547 2.432-11.072 4.885-16.576 7.424-2.88 1.323-5.803 2.517-8.683 3.883-4.224 2.005-8.448 4.117-12.651 6.229-18.923 9.493-37.141 20.139-49.728 32.043-7.467 6.997-11.584 14.976-12.075 18.197-0.747 7.232-0.576 6.955 3.989 12.949 4.864 5.248 14.549 11.435 25.664 16.299 9.813 4.437 20.885 8.149 32.149 11.584v6.592c-33.451 6.4-65.301 12.779-94.997 20.352-3.669-3.008-7.317-6.229-10.901-9.963-7.531-8-14.613-18.581-18.517-30.976-4.032-12.352-4.309-25.771-2.603-36.267 4.309-25.728 17.707-42.624 30.4-55.723 19.307-19.029 39.168-31.701 58.475-42.603 6.677-3.776 13.291-7.339 19.797-10.859 0.576-0.32 1.131-0.533 1.707-0.853 5.675-2.944 11.093-5.504 16.64-8.256 7.168-3.563 14.4-7.253 21.333-10.517 11.179-5.269 22.123-10.283 32.597-15.061 3.669-1.643 6.912-3.179 10.475-4.821 8.811-4.011 17.387-7.957 25.408-11.797 5.909-2.816 11.413-5.547 16.832-8.277 2.517-1.259 5.419-2.603 7.829-3.84 4.523-2.368 9.152-5.227 13.504-8.512 12.096-9.088 21.355-19.904 21.333-35.84v-58.005c28.48 0 52.331 21.973 60.629 52.139 0.171 0.405 0.405 0.683 0.555 1.088 0.277 0.747 0.512 1.557 0.789 2.347 0.597 1.813 0.96 5.931 1.237 10.283 0.32 3.051 0.789 6.059 0.789 9.237 0 0.597-0.149 0.981-0.149 1.557 0.043 0.768 0.107 1.771 0.149 2.325-0.299 15.531-1.963 19.904-8.981 32.149zM426.667 752.213c-38.656 27.008-64 71.744-64 122.453h-341.333c0-23.829 3.605-44.928 9.941-64h75.392c43.328-149.333 213.333-149.333 320-149.333v90.88z" />
<glyph unicode="&#xe80a;" glyph-name="PRIcons-merge" data-tags="PRIcons_merge" d="M608 613.472v90.528h160l-256 256-256-256h160v-90.528c0-289.296-364.8-506.976-368.48-509.136l48.48-82.864 48.336-82.944c13.296 7.76 235.808 139.936 367.664 356.112 131.856-216.176 354.368-348.352 367.664-356.096l96.688 165.872c-3.68 2.144-368.352 222.752-368.352 509.056z" />
</font>
</defs>
</svg>
